<svg width="441" height="166" viewBox="0 0 641 366" fill="none" xmlns="http://www.w3.org/2000/svg">
<path d="M74.8301 142.7C74.8301 138.5 76.0301 135.4 78.4301 133.4L175.63 5.89999C178.23 3.29999 180.93 1.99999 183.73 1.99999C190.13 1.99999 193.33 7.39999 193.33 18.2V131.9H207.43C210.03 131.9 212.03 133 213.43 135.2C215.03 137.4 215.83 140 215.83 143C215.83 150.4 213.03 154.1 207.43 154.1H193.33V203.6C193.33 206.2 192.23 208.3 190.03 209.9C187.83 211.3 185.23 212 182.23 212C174.83 212 171.13 209.2 171.13 203.6V154.1H82.9301C77.5301 154.1 74.8301 150.3 74.8301 142.7ZM107.53 131.9H171.13V48.5L107.53 131.9ZM244.663 107.6C244.663 75.6 251.063 49.8 263.863 30.2C276.863 10.4 294.663 0.499987 317.263 0.499987C340.063 0.499987 357.563 10.6 369.763 30.8C382.163 51 388.363 76.3 388.363 106.7C388.363 140.1 382.363 166.2 370.363 185C358.363 203.8 340.663 213.3 317.263 213.5C294.663 213.5 276.863 203.9 263.863 184.7C251.063 165.5 244.663 139.8 244.663 107.6ZM266.863 107.9C266.863 132.3 271.063 152.3 279.463 167.9C287.863 183.5 300.463 191.3 317.263 191.3C333.863 191.3 346.163 183.5 354.163 167.9C362.163 152.3 366.163 132.1 366.163 107.3C366.163 92.1 364.563 78.4 361.363 66.2C358.363 54 353.063 43.7 345.463 35.3C337.863 26.9 328.463 22.7 317.263 22.7C305.863 22.7 296.263 26.9 288.463 35.3C280.663 43.7 275.063 54.1 271.663 66.5C268.463 78.9 266.863 92.7 266.863 107.9ZM412.037 142.7C412.037 138.5 413.237 135.4 415.637 133.4L512.837 5.89999C515.437 3.29999 518.137 1.99999 520.937 1.99999C527.337 1.99999 530.537 7.39999 530.537 18.2V131.9H544.637C547.237 131.9 549.237 133 550.637 135.2C552.237 137.4 553.037 140 553.037 143C553.037 150.4 550.237 154.1 544.637 154.1H530.537V203.6C530.537 206.2 529.437 208.3 527.237 209.9C525.037 211.3 522.437 212 519.437 212C512.037 212 508.337 209.2 508.337 203.6V154.1H420.137C414.737 154.1 412.037 150.3 412.037 142.7ZM444.737 131.9H508.337V48.5L444.737 131.9Z" fill="url(#paint0_linear_33_19)"/>
<path d="M16.1883 304.856H29.7243C33.9483 304.856 37.3403 303.704 39.9003 301.4C42.4603 299.096 43.7403 295.896 43.7403 291.8C43.7403 287.448 42.4603 284.184 39.9003 282.008C37.4043 279.768 34.0443 278.648 29.8203 278.648H16.1883L17.9163 276.44V335H8.31625V269.624H31.4523C35.9323 269.624 39.8363 270.616 43.1643 272.6C46.4923 274.584 49.0843 277.24 50.9403 280.568C52.7963 283.896 53.7243 287.64 53.7243 291.8C53.7243 295.896 52.7963 299.64 50.9403 303.032C49.0843 306.36 46.4603 309.016 43.0683 311C39.7403 312.92 35.8363 313.88 31.3563 313.88H16.1883V304.856ZM74.4235 336.344C70.7755 336.344 67.6395 335.704 65.0155 334.424C62.3915 333.144 60.3755 331.32 58.9675 328.952C57.6235 326.52 56.9515 323.64 56.9515 320.312C56.9515 317.24 57.6555 314.52 59.0635 312.152C60.4715 309.72 62.4875 307.8 65.1115 306.392C67.7355 304.984 70.8395 304.28 74.4235 304.28C78.9035 304.28 82.4875 305.304 85.1755 307.352C87.9275 309.336 89.8475 312.088 90.9355 315.608H85.5595V303.608C85.5595 301.624 84.8875 299.8 83.5435 298.136C82.1995 296.472 79.8315 295.64 76.4395 295.64C74.6475 295.64 72.6635 295.864 70.4875 296.312C68.3755 296.696 66.1675 297.4 63.8635 298.424L60.9835 291.032C63.6075 289.752 66.3275 288.792 69.1435 288.152C71.9595 287.512 74.7115 287.192 77.3995 287.192C81.4315 287.192 84.7595 287.928 87.3835 289.4C90.0075 290.872 91.9595 292.856 93.2395 295.352C94.5195 297.784 95.1595 300.536 95.1595 303.608V335H88.2475L85.8475 326.456L90.9355 325.016C89.7835 328.792 87.7355 331.64 84.7915 333.56C81.8475 335.416 78.3915 336.344 74.4235 336.344ZM76.1515 327.8C78.9675 327.8 81.2395 327.16 82.9675 325.88C84.6955 324.536 85.5595 322.68 85.5595 320.312C85.5595 317.88 84.6955 316.024 82.9675 314.744C81.2395 313.464 78.9675 312.824 76.1515 312.824C73.3355 312.824 71.0635 313.464 69.3355 314.744C67.6075 316.024 66.7435 317.88 66.7435 320.312C66.7435 322.68 67.6075 324.536 69.3355 325.88C71.0635 327.16 73.3355 327.8 76.1515 327.8ZM127.722 354.008C125.034 354.008 122.474 353.624 120.042 352.856C117.674 352.152 115.498 350.968 113.514 349.304C111.594 347.64 109.866 345.432 108.33 342.68L107.658 341.432L115.242 337.304C116.906 340.056 118.666 342.104 120.522 343.448C122.442 344.856 124.842 345.56 127.722 345.56C131.626 345.56 134.698 344.344 136.938 341.912C139.242 339.48 140.394 335.736 140.394 330.68V320.696H141.354V297.56H140.394L142.698 288.152H149.994V329.144C149.994 334.648 149.002 339.256 147.018 342.968C145.098 346.68 142.474 349.432 139.146 351.224C135.818 353.08 132.01 354.008 127.722 354.008ZM126.57 332.12C122.218 332.12 118.378 331.192 115.049 329.336C111.786 327.48 109.226 324.888 107.37 321.56C105.578 318.168 104.682 314.232 104.682 309.752C104.682 305.208 105.578 301.272 107.37 297.944C109.226 294.552 111.786 291.928 115.049 290.072C118.378 288.152 122.218 287.192 126.57 287.192C130.73 287.192 134.346 288.152 137.418 290.072C140.554 291.928 142.986 294.552 144.714 297.944C146.442 301.272 147.306 305.208 147.306 309.752C147.306 314.232 146.442 318.168 144.714 321.56C142.986 324.888 140.554 327.48 137.418 329.336C134.346 331.192 130.73 332.12 126.57 332.12ZM127.722 323.864C131.69 323.864 134.858 322.584 137.226 320.024C139.658 317.4 140.874 313.944 140.874 309.656C140.874 305.368 139.658 301.944 137.226 299.384C134.858 296.76 131.69 295.448 127.722 295.448C123.754 295.448 120.554 296.76 118.122 299.384C115.69 302.008 114.474 305.464 114.474 309.752C114.474 313.976 115.69 317.4 118.122 320.024C120.554 322.584 123.754 323.864 127.722 323.864ZM181.896 335.96C177.352 335.96 173.352 334.968 169.896 332.984C166.44 330.936 163.752 328.088 161.832 324.44C159.912 320.792 158.952 316.536 158.952 311.672C158.952 306.744 159.912 302.456 161.832 298.808C163.752 295.16 166.44 292.312 169.896 290.264C173.352 288.216 177.352 287.192 181.896 287.192C186.504 287.192 190.536 288.216 193.992 290.264C197.448 292.312 200.136 295.16 202.056 298.808C203.976 302.456 204.936 306.744 204.936 311.672C204.936 312.12 204.904 312.6 204.84 313.112C204.84 313.56 204.808 313.976 204.744 314.36H168.072V306.104H197.832L195.144 311.672C195.144 306.808 194.056 302.808 191.88 299.672C189.704 296.536 186.376 294.968 181.896 294.968C177.928 294.968 174.76 296.248 172.392 298.808C170.024 301.304 168.84 304.6 168.84 308.696V313.688C168.84 317.976 169.992 321.4 172.296 323.96C174.6 326.456 177.8 327.704 181.896 327.704C185.672 327.704 188.584 326.904 190.632 325.304C192.68 323.704 194.472 321.72 196.008 319.352L203.208 323.864C201.032 327.896 198.216 330.936 194.76 332.984C191.368 334.968 187.08 335.96 181.896 335.96ZM265.678 287.192C269.006 287.192 271.63 287.768 273.55 288.92C275.47 290.008 276.878 291.512 277.774 293.432C278.67 295.288 279.246 297.4 279.502 299.768C279.758 302.136 279.886 304.568 279.886 307.064V335H270.286V305.048C270.286 301.72 269.518 299.48 267.982 298.328C266.51 297.176 264.75 296.6 262.702 296.6C260.654 296.6 258.574 297.016 256.462 297.848C254.35 298.68 252.462 299.8 250.798 301.208C249.134 302.616 247.854 304.184 246.958 305.912V300.536H248.494V335H238.894V288.152H246.19L248.206 296.408L245.806 296.696C247.598 294.648 249.55 292.92 251.662 291.512C253.774 290.104 256.014 289.048 258.382 288.344C260.75 287.576 263.182 287.192 265.678 287.192ZM312.42 335.96C307.684 335.96 303.492 334.968 299.844 332.984C296.26 330.936 293.476 328.088 291.492 324.44C289.508 320.792 288.516 316.536 288.516 311.672C288.516 306.744 289.508 302.456 291.492 298.808C293.476 295.16 296.26 292.312 299.844 290.264C303.492 288.216 307.684 287.192 312.42 287.192C317.22 287.192 321.412 288.216 324.996 290.264C328.58 292.312 331.364 295.16 333.348 298.808C335.396 302.456 336.42 306.744 336.42 311.672C336.42 316.536 335.396 320.792 333.348 324.44C331.364 328.088 328.58 330.936 324.996 332.984C321.412 334.968 317.22 335.96 312.42 335.96ZM312.42 326.744C316.708 326.744 320.132 325.368 322.692 322.616C325.316 319.8 326.628 316.152 326.628 311.672C326.628 307.128 325.316 303.448 322.692 300.632C320.132 297.816 316.708 296.408 312.42 296.408C308.196 296.408 304.772 297.816 302.148 300.632C299.588 303.384 298.308 307.032 298.308 311.576C298.308 316.12 299.588 319.8 302.148 322.616C304.772 325.368 308.196 326.744 312.42 326.744ZM361.362 335.864C357.266 335.864 354.002 334.68 351.57 332.312C349.202 329.88 348.018 326.136 348.018 321.08V288.728V288.152L349.842 277.592H357.618V321.272C357.618 323.064 358.066 324.408 358.962 325.304C359.922 326.2 361.106 326.648 362.514 326.648C363.602 326.648 364.562 326.584 365.394 326.456C366.226 326.328 366.962 326.168 367.602 325.976V334.904C366.77 335.16 365.842 335.384 364.818 335.576C363.858 335.768 362.706 335.864 361.362 335.864ZM340.818 296.984V288.152H367.602V296.984H340.818ZM407.071 335V283.544C407.071 280.152 407.615 277.368 408.703 275.192C409.791 273.016 411.327 271.416 413.311 270.392C415.295 269.304 417.663 268.76 420.415 268.76C421.695 268.76 422.847 268.856 423.871 269.048C424.895 269.24 425.823 269.464 426.655 269.72V278.648C425.951 278.52 425.247 278.424 424.543 278.36C423.903 278.232 423.135 278.168 422.239 278.168C420.831 278.168 419.551 278.648 418.399 279.608C417.247 280.504 416.671 282.072 416.671 284.312V335H407.071ZM425.695 296.984H399.871V288.152H425.695V296.984ZM454.358 335.96C449.622 335.96 445.43 334.968 441.782 332.984C438.198 330.936 435.414 328.088 433.43 324.44C431.446 320.792 430.454 316.536 430.454 311.672C430.454 306.744 431.446 302.456 433.43 298.808C435.414 295.16 438.198 292.312 441.782 290.264C445.43 288.216 449.622 287.192 454.358 287.192C459.158 287.192 463.35 288.216 466.934 290.264C470.518 292.312 473.302 295.16 475.286 298.808C477.334 302.456 478.358 306.744 478.358 311.672C478.358 316.536 477.334 320.792 475.286 324.44C473.302 328.088 470.518 330.936 466.934 332.984C463.35 334.968 459.158 335.96 454.358 335.96ZM454.358 326.744C458.646 326.744 462.07 325.368 464.63 322.616C467.254 319.8 468.566 316.152 468.566 311.672C468.566 307.128 467.254 303.448 464.63 300.632C462.07 297.816 458.646 296.408 454.358 296.408C450.134 296.408 446.71 297.816 444.086 300.632C441.526 303.384 440.246 307.032 440.246 311.576C440.246 316.12 441.526 319.8 444.086 322.616C446.71 325.368 450.134 326.744 454.358 326.744ZM501.741 335.96C498.221 335.96 495.437 335.416 493.389 334.328C491.341 333.176 489.837 331.672 488.877 329.816C487.917 327.896 487.277 325.752 486.957 323.384C486.701 321.016 486.573 318.584 486.573 316.088V288.152H496.173V318.104C496.173 321.432 496.909 323.672 498.381 324.824C499.917 325.976 501.709 326.552 503.757 326.552C505.869 326.552 507.949 326.136 509.997 325.304C512.109 324.472 513.997 323.352 515.661 321.944C517.389 320.472 518.669 318.904 519.501 317.24V322.616H517.965V288.152H527.565V335H520.269L518.253 326.744L520.653 326.456C518.989 328.44 517.133 330.168 515.085 331.64C513.037 333.048 510.893 334.136 508.653 334.904C506.413 335.608 504.109 335.96 501.741 335.96ZM566.616 287.192C569.944 287.192 572.568 287.768 574.488 288.92C576.408 290.008 577.816 291.512 578.712 293.432C579.608 295.288 580.184 297.4 580.44 299.768C580.696 302.136 580.824 304.568 580.824 307.064V335H571.224V305.048C571.224 301.72 570.456 299.48 568.92 298.328C567.448 297.176 565.688 296.6 563.64 296.6C561.592 296.6 559.512 297.016 557.4 297.848C555.288 298.68 553.4 299.8 551.736 301.208C550.072 302.616 548.792 304.184 547.896 305.912V300.536H549.432V335H539.832V288.152H547.128L549.144 296.408L546.744 296.696C548.536 294.648 550.488 292.92 552.6 291.512C554.712 290.104 556.952 289.048 559.32 288.344C561.688 287.576 564.12 287.192 566.616 287.192ZM610.958 335.96C606.67 335.96 602.894 334.936 599.63 332.888C596.366 330.84 593.838 327.992 592.046 324.344C590.254 320.632 589.358 316.344 589.358 311.48C589.358 306.616 590.254 302.36 592.046 298.712C593.838 295.064 596.366 292.248 599.63 290.264C602.894 288.216 606.67 287.192 610.958 287.192C615.182 287.192 618.862 288.216 621.998 290.264C625.134 292.248 627.566 295.064 629.294 298.712C631.086 302.36 631.982 306.616 631.982 311.48C631.982 316.344 631.086 320.632 629.294 324.344C627.566 327.992 625.134 330.84 621.998 332.888C618.862 334.936 615.182 335.96 610.958 335.96ZM612.398 327.704C616.366 327.704 619.534 326.232 621.902 323.288C624.334 320.344 625.55 316.44 625.55 311.576C625.55 306.712 624.334 302.808 621.902 299.864C619.534 296.92 616.366 295.448 612.398 295.448C608.43 295.448 605.23 296.92 602.798 299.864C600.366 302.808 599.15 306.68 599.15 311.48C599.15 316.344 600.366 320.28 602.798 323.288C605.23 326.232 608.43 327.704 612.398 327.704ZM627.374 335L625.07 325.592H626.03V298.904H625.07V269.624H634.67V335H627.374Z" fill="url(#paint1_linear_33_19)"/>
<path d="M0.15625 357.56H56.6042V365.24H0.15625V357.56ZM53.6875 357.56H156.138V365.24H53.6875V357.56ZM155.688 357.56H207.816V365.24H155.688V357.56ZM207.812 357.56H232.772V365.24H207.812V357.56ZM232.75 357.56H285.646V365.24H232.75V357.56ZM285.156 357.56H339.78V365.24H285.156V357.56ZM337.938 357.56H397.397V365.24H337.938V357.56ZM397.375 357.56H427.519V365.24H397.375V357.56ZM427.094 357.56H481.718V365.24H427.094V357.56ZM480.812 357.56H533.708V365.24H480.812V357.56ZM533.688 357.56H586.583V365.24H533.688V357.56ZM586.094 357.56H640.814V365.24H586.094V357.56Z" fill="url(#paint2_linear_33_19)"/>
<defs>
<linearGradient id="paint0_linear_33_19" x1="316.5" y1="-141" x2="316.5" y2="356" gradientUnits="userSpaceOnUse">
<stop stop-color="#395A6E"/>
<stop offset="0.20002" stop-color="#3D6075"/>
<stop offset="1" stop-color="#6EADD4"/>
</linearGradient>
<linearGradient id="paint1_linear_33_19" x1="-42" y1="302" x2="683" y2="302" gradientUnits="userSpaceOnUse">
<stop offset="0.30002" stop-color="#395A6E"/>
<stop offset="1" stop-color="#6EADD4"/>
</linearGradient>
<linearGradient id="paint2_linear_33_19" x1="-42" y1="302" x2="683" y2="302" gradientUnits="userSpaceOnUse">
<stop offset="0.30002" stop-color="#395A6E"/>
<stop offset="1" stop-color="#6EADD4"/>
</linearGradient>
</defs>
</svg>