<svg width="60" height="70" viewBox="0 0 88 98" fill="none" xmlns="http://www.w3.org/2000/svg">
<path d="M43.759 49.3334H44.258M64.0027 49.3334C64.0027 74.3342 55.0553 94.3334 44.0084 94.3334C32.9615 94.3334 24.0141 74.3342 24.0141 49.3334C24.0141 24.3326 32.9615 4.33337 44.0084 4.33337C55.0553 4.33337 64.0027 24.3326 64.0027 49.3334ZM5.26748 73.0838C10.7669 83.0822 32.5608 80.783 53.9564 67.6334C75.3519 54.4814 88.196 35.6846 82.7493 25.5854C77.3003 15.4814 55.456 17.8814 34.0101 31.0334C12.5641 44.1854 -0.181589 62.987 5.26748 73.0838ZM82.7493 73.0814C88.196 63.0806 75.3495 44.1806 53.9564 31.031C32.5632 17.8814 10.7669 15.431 5.26748 25.583C-0.229578 35.7302 12.6673 54.3302 34.0124 67.631C55.3552 80.9318 77.2499 83.2334 82.7493 73.0814Z" stroke="#5F9BC1" stroke-width="7" stroke-linecap="round" stroke-linejoin="round"/>
</svg>
