<svg width="464" height="135" viewBox="0 0 464 135" fill="none" xmlns="http://www.w3.org/2000/svg">
<path fill-rule="evenodd" clip-rule="evenodd" d="M180.872 51.1598C176.073 50.9618 171.621 50.9764 167.453 51.1968L167.137 45.2051C171.515 44.9737 176.156 44.9601 181.12 45.1649L180.872 51.1598ZM201.001 52.9604C198.72 52.665 196.505 52.4037 194.351 52.1764L194.981 46.2096C197.221 46.446 199.521 46.7178 201.886 47.025L201.998 47.0395L202.107 47.0621C204.601 47.5776 207.06 48.2704 209.483 49.1175L207.504 54.7815C205.347 54.0277 203.18 53.4161 201.001 52.9604ZM154.239 52.7365C149.716 53.5887 145.514 54.7543 141.51 56.2251L139.441 50.593C143.763 49.0055 148.285 47.7526 153.128 46.8403L154.239 52.7365ZM231.761 68.7678C227.904 65.7812 224.017 63.0748 220.089 60.7494L223.145 55.5861C227.332 58.0646 231.427 60.9201 235.435 64.0241L231.761 68.7678ZM129.524 61.7917C125.775 63.9003 122.077 66.3209 118.307 69.0571L114.783 64.2013C118.7 61.3583 122.593 58.8059 126.582 56.5623L129.524 61.7917ZM107.657 77.385C105.957 78.7935 104.225 80.2576 102.453 81.7775L98.5473 77.2226C100.34 75.6856 102.098 74.199 103.83 72.7644L107.657 77.385ZM253.218 87.869C249.744 84.4901 246.246 81.1664 242.712 77.9839L246.727 73.5254C250.339 76.7779 253.897 80.159 257.402 83.5678L253.218 87.869ZM386.458 93.9976C386.047 96.4425 385.431 98.8172 384.618 101.11L378.963 99.1031C379.659 97.1428 380.188 95.1069 380.542 93.0025L386.458 93.9976ZM274.031 108.253C270.559 104.968 267.066 101.533 263.558 98.062L267.778 93.7971C271.283 97.2648 274.735 100.659 278.154 103.894L274.031 108.253ZM377.38 113.829C374.38 117.465 370.739 120.694 366.526 123.457L363.236 118.44C366.98 115.984 370.161 113.151 372.752 110.011L377.38 113.829ZM297.07 126.893C293.032 124.394 289.015 121.394 285.016 118.075L288.848 113.458C292.704 116.659 296.492 119.479 300.227 121.791L297.07 126.893ZM353.668 129.796C349.42 131.325 344.828 132.509 339.925 133.318L338.948 127.398C343.518 126.644 347.756 125.547 351.637 124.151L353.668 129.796ZM318.877 134.498C316.24 134.389 313.628 133.954 311.045 133.246L312.63 127.46C314.823 128.06 316.984 128.415 319.123 128.503C321.392 128.596 323.609 128.619 325.772 128.576L325.892 134.575C323.604 134.621 321.265 134.596 318.877 134.498Z" fill="#395A6E"/>
<path d="M62.2084 94.8334H58.3243L56.9476 93.5059C62.8476 86.6226 65.8959 77.2318 64.2243 67.2509C61.9134 53.5826 50.5068 42.6676 36.7401 40.9959C15.9426 38.4392 -1.56075 55.9426 0.995914 76.7401C2.66758 90.5068 13.5826 101.913 27.2509 104.224C37.2318 105.896 46.6226 102.848 53.5059 96.9476L54.8334 98.3243V102.208L75.7293 123.104C77.7451 125.12 81.0393 125.12 83.0551 123.104C85.0709 121.088 85.0709 117.794 83.0551 115.778L62.2084 94.8334ZM32.7084 96.9476C20.4659 96.9476 7.61386 84.9509 7.61386 72.7084C7.61386 60.4659 20.4659 47.6139 32.7084 47.6139C44.9509 47.6139 56.9476 60.4659 56.9476 72.7084C56.9476 84.9509 44.9509 96.9476 32.7084 96.9476Z" fill="#457B9D"/>
<path d="M23.9703 91.6083C23.5955 91.6068 23.2296 91.5179 22.9188 91.3527C22.608 91.1876 22.3661 90.9536 22.2237 90.6802L13.2057 73.6454H4.98516V68.8838H14.4777C14.4777 68.8838 15.2184 68.9742 15.5292 69.1394C15.8401 69.3045 16.0819 69.5385 16.2244 69.8119L23.9703 84.4158L39.2723 51.8939C39.4081 51.6074 39.6519 51.3606 39.971 51.1866C40.29 51.0127 40.669 50.9199 41.0569 50.9209C41.4484 50.9263 41.8283 51.027 42.1443 51.2093C42.4604 51.3915 42.6973 51.6463 42.8226 51.9388L50.0179 68.8838H58.1436V73.6454H48.651C48.253 73.6462 47.8647 73.5484 47.5411 73.3657C47.2174 73.1831 46.9748 72.9249 46.8474 72.6275L41.0569 58.6764L25.7549 90.6353C25.6191 90.9218 25.3753 91.1687 25.0563 91.3426C24.7372 91.5166 24.3582 91.6093 23.9703 91.6083Z" fill="#457B9D"/>
<path d="M418.964 42.9196C418.964 40.6498 417.124 38.8096 414.854 38.8096C412.584 38.8096 410.744 40.6498 410.744 42.9196H418.964ZM414.854 80.8302H410.744C410.744 82.1947 411.421 83.4705 412.552 84.235C413.682 84.9994 415.119 85.1528 416.385 84.6443L414.854 80.8302ZM446.331 68.1934L447.862 72.0074C449.42 71.3822 450.441 69.8719 450.441 68.1934H446.331ZM450.441 41.9222C450.441 39.6524 448.601 37.8122 446.331 37.8122C444.061 37.8122 442.221 39.6524 442.221 41.9222H450.441ZM417.35 39.6541C415.546 38.2758 412.967 38.6205 411.589 40.424C410.21 42.2275 410.555 44.8069 412.358 46.1851L417.35 39.6541ZM426.077 51.4958L423.582 54.7613C424.804 55.6951 426.444 55.8688 427.835 55.2112L426.077 51.4958ZM448.072 45.6377C450.124 44.6666 451.001 42.2165 450.03 40.1648C449.059 38.1131 446.609 37.2363 444.557 38.2068L448.072 45.6377ZM413.323 39.1055C411.216 39.9511 410.194 42.3442 411.04 44.4507C411.886 46.5572 414.279 47.5792 416.385 46.7337L413.323 39.1055ZM447.862 34.0968C449.969 33.2512 450.991 30.8579 450.145 28.7515C449.3 26.645 446.907 25.6229 444.8 26.4686L447.862 34.0968ZM444.801 34.0968C446.907 34.9424 449.3 33.9198 450.145 31.8133C450.991 29.7068 449.968 27.3137 447.862 26.4684L444.801 34.0968ZM416.385 13.837C414.278 12.9916 411.885 14.0141 411.04 16.1206C410.194 18.2273 411.217 20.6203 413.324 21.4657L416.385 13.837ZM448.345 26.7055C446.367 25.5931 443.861 26.2955 442.748 28.2741C441.636 30.2528 442.338 32.7586 444.317 33.871L448.345 26.7055ZM457.571 36.6066L459.326 40.3232C460.716 39.6667 461.624 38.289 461.678 36.7524C461.733 35.2158 460.925 33.7773 459.585 33.0238L457.571 36.6066ZM444.557 38.2068C442.505 39.1762 441.629 41.6247 442.598 43.6775C443.568 45.7297 446.019 46.6071 448.072 45.6377L444.557 38.2068ZM443.267 27.5248C441.744 29.2078 441.874 31.8067 443.557 33.3301C445.24 34.853 447.839 34.7237 449.362 33.0408L443.267 27.5248ZM459.79 15.3935L462.838 18.1515C463.768 17.123 464.118 15.6943 463.766 14.3524C463.415 13.0105 462.41 11.9363 461.094 11.4961L459.79 15.3935ZM426.077 4.11023L427.381 0.212743C425.773 -0.325502 424 0.179314 422.916 1.48372L426.077 4.11023ZM411.665 15.0248C410.215 16.7707 410.454 19.362 412.2 20.8126C413.946 22.2632 416.538 22.0237 417.988 20.2778L411.665 15.0248ZM381.819 26.4684C379.712 27.3137 378.69 29.7068 379.535 31.8133C380.381 33.9198 382.774 34.9424 384.88 34.0968L381.819 26.4684ZM416.357 21.4657C418.464 20.6203 419.486 18.2273 418.641 16.1206C417.796 14.0141 415.403 12.9916 413.296 13.837L416.357 21.4657ZM385.364 33.8655C387.342 32.7531 388.045 30.2473 386.932 28.2686C385.82 26.29 383.314 25.5877 381.335 26.7L385.364 33.8655ZM372.11 36.6011L370.096 33.0183C368.756 33.7713 367.949 35.2092 368.003 36.7447C368.056 38.2808 368.962 39.6584 370.351 40.316L372.11 36.6011ZM381.591 45.6371C383.642 46.6082 386.093 45.7325 387.064 43.6808C388.036 41.629 387.16 39.1789 385.108 38.2073L381.591 45.6371ZM384.881 26.4686C382.774 25.6229 380.381 26.645 379.535 28.7515C378.69 30.8579 379.712 33.2512 381.818 34.0968L384.881 26.4686ZM413.296 46.7337C415.402 47.5792 417.795 46.5572 418.641 44.4507C419.486 42.3442 418.464 39.9511 416.358 39.1055L413.296 46.7337ZM380.279 33.015C381.788 34.7105 384.386 34.8618 386.082 33.3531C387.777 31.8445 387.929 29.2464 386.42 27.5506L380.279 33.015ZM372.11 17.6513L370.486 13.8759C369.273 14.3977 368.384 15.4705 368.098 16.7596C367.811 18.0487 368.162 19.3969 369.04 20.3834L372.11 17.6513ZM403.587 4.11023L406.75 1.48525C405.586 0.0828655 403.637 -0.385455 401.963 0.334781L403.587 4.11023ZM411.664 20.2763C413.114 22.0229 415.705 22.2636 417.452 20.8138C419.198 19.3641 419.439 16.7729 417.989 15.0263L411.664 20.2763ZM418.937 42.9251C418.937 40.6553 417.096 38.8151 414.827 38.8151C412.557 38.8151 410.717 40.6553 410.717 42.9251H418.937ZM414.827 80.8302L413.296 84.6443C414.562 85.1528 415.998 84.9994 417.129 84.235C418.259 83.4705 418.937 82.1947 418.937 80.8302H414.827ZM383.35 68.1934H379.24C379.24 69.8719 380.26 71.3822 381.818 72.0074L383.35 68.1934ZM387.46 41.9222C387.46 39.6524 385.619 37.8122 383.35 37.8122C381.08 37.8122 379.24 39.6524 379.24 41.9222H387.46ZM417.32 46.1868C419.125 44.8102 419.471 42.2308 418.094 40.4262C416.717 38.6216 414.138 38.2753 412.333 39.6524L417.32 46.1868ZM403.587 51.4958L401.83 55.2112C403.219 55.8683 404.859 55.6957 406.081 54.763L403.587 51.4958ZM385.108 38.2073C383.056 37.2368 380.605 38.1131 379.634 40.1648C378.664 42.2165 379.539 44.6661 381.591 45.6371L385.108 38.2073ZM410.744 42.9196V80.8302H418.964V42.9196H410.744ZM416.385 84.6443L447.862 72.0074L444.8 64.3793L413.323 77.0162L416.385 84.6443ZM450.441 68.1934V41.9222H442.221V68.1934H450.441ZM412.358 46.1851L423.582 54.7613L428.573 48.2303L417.35 39.6541L412.358 46.1851ZM427.835 55.2112L448.072 45.6377L444.557 38.2068L424.32 47.7803L427.835 55.2112ZM416.385 46.7337L447.862 34.0968L444.8 26.4686L413.323 39.1055L416.385 46.7337ZM447.862 26.4684L416.385 13.837L413.324 21.4657L444.801 34.0968L447.862 26.4684ZM444.317 33.871L455.557 40.1895L459.585 33.0238L448.345 26.7055L444.317 33.871ZM455.815 32.8901L444.557 38.2068L448.072 45.6377L459.326 40.3232L455.815 32.8901ZM449.362 33.0408L462.838 18.1515L456.743 12.6356L443.267 27.5248L449.362 33.0408ZM461.094 11.4961L427.381 0.212743L424.773 8.00771L458.486 19.291L461.094 11.4961ZM422.916 1.48372L411.665 15.0248L417.988 20.2778L429.239 6.73674L422.916 1.48372ZM384.88 34.0968L416.357 21.4657L413.296 13.837L381.819 26.4684L384.88 34.0968ZM381.335 26.7L370.096 33.0183L374.124 40.184L385.364 33.8655L381.335 26.7ZM370.351 40.316L381.591 45.6371L385.108 38.2073L373.869 32.8863L370.351 40.316ZM381.818 34.0968L413.296 46.7337L416.358 39.1055L384.881 26.4686L381.818 34.0968ZM386.42 27.5506L375.181 14.9192L369.04 20.3834L380.279 33.015L386.42 27.5506ZM373.734 21.4268L405.211 7.88567L401.963 0.334781L370.486 13.8759L373.734 21.4268ZM400.425 6.7352L411.664 20.2763L417.989 15.0263L406.75 1.48525L400.425 6.7352ZM410.717 42.9251V80.8302H418.937V42.9251H410.717ZM416.358 77.0162L384.881 64.3793L381.818 72.0074L413.296 84.6443L416.358 77.0162ZM387.46 68.1934V41.9222H379.24V68.1934H387.46ZM412.333 39.6524L401.094 48.2286L406.081 54.763L417.32 46.1868L412.333 39.6524ZM405.345 47.7803L385.108 38.2073L381.591 45.6371L401.83 55.2112L405.345 47.7803Z" fill="#5F9BC1"/>
</svg>
