<svg width="580" height="170" viewBox="0 0 726 214" fill="none" xmlns="http://www.w3.org/2000/svg">
<path fill-rule="evenodd" clip-rule="evenodd" d="M39.2313 0.0404538C41.1422 -0.250832 42.9275 1.06214 43.2187 2.97307L44.2592 9.79898C44.5505 11.7099 43.2375 13.4951 41.3266 13.7864C39.4157 14.0777 37.6305 12.7647 37.3392 10.8538L36.2987 4.02791C36.0074 2.11698 37.3204 0.33174 39.2313 0.0404538ZM66.7634 3.36412C68.5096 4.19321 69.253 6.28086 68.424 8.02703L65.4624 14.2644C64.6333 16.0106 62.5457 16.754 60.7995 15.9249C59.0533 15.0958 58.3099 13.0082 59.139 11.262L62.1005 5.02464C62.9296 3.27848 65.0173 2.53504 66.7634 3.36412ZM15.3958 12.0243C16.9141 10.828 19.1148 11.0891 20.3111 12.6074L23.5554 16.725C24.7517 18.2433 24.4906 20.444 22.9723 21.6403C21.454 22.8366 19.2533 22.5755 18.057 21.0572L14.8127 16.9396C13.6164 15.4213 13.8775 13.2206 15.3958 12.0243ZM31.0706 22.5042C36.0742 19.1229 42.7862 17.974 50.6654 18.9087C58.5448 19.8434 64.8017 22.5307 68.8755 26.9889C73.0202 31.5248 74.4906 37.4402 73.6243 43.876C72.7598 50.3007 70.0534 54.6189 65.2716 58.3868C63.1162 60.0854 62.0594 60.9595 61.2892 62.1308C60.5708 63.2231 59.9372 64.8627 59.5316 68.2784C59.3038 70.1978 57.5632 71.5691 55.6438 71.3414L33.5582 68.7215C32.6364 68.6121 31.7957 68.141 31.2212 67.4118C30.6468 66.6826 30.3855 65.7551 30.4949 64.8333C30.9004 61.4173 30.6681 59.6754 30.2254 58.4457C29.7506 57.1269 28.9275 56.03 27.2284 53.8738C23.4592 49.0908 21.8403 44.2596 22.5026 37.8116C23.166 31.3517 25.9797 25.9445 31.0706 22.5042ZM34.9899 28.3041C31.9162 30.3812 29.9576 33.7398 29.4659 38.5267C29.0018 43.0455 30.0058 46.0888 32.7264 49.5412C32.78 49.6092 32.8336 49.6772 32.8873 49.7453C34.3829 51.6414 35.9147 53.5835 36.8115 56.0745C37.4666 57.8939 37.741 59.8521 37.7012 62.1639L53.1505 63.9966C53.6529 61.7396 54.3781 59.9002 55.4405 58.2847C56.8949 56.0729 58.8378 54.5432 60.7347 53.0497C60.8029 52.996 60.871 52.9424 60.939 52.8888C64.3917 50.1681 66.0812 47.4436 66.6868 42.9423C67.3288 38.1732 66.2104 34.4494 63.7079 31.7108C61.1345 28.8945 56.686 26.672 49.8408 25.8599C42.9958 25.0479 38.1509 26.168 34.9899 28.3041ZM86.5683 20.4673C87.7646 21.9856 87.5036 24.1863 85.9853 25.3826L81.8676 28.6269C80.3493 29.8232 78.1487 29.5621 76.9524 28.0438C75.7561 26.5255 76.0171 24.3248 77.5354 23.1285L81.6531 19.8842C83.1714 18.6879 85.372 18.949 86.5683 20.4673ZM0.0247107 39.1152C0.25242 37.1956 1.99311 35.8241 3.91265 36.0518L10.7693 36.8652C12.6889 37.0929 14.0604 38.8336 13.8327 40.7532C13.6049 42.6727 11.8643 44.0442 9.94472 43.8165L3.08804 43.0031C1.1685 42.7754 -0.202999 41.0347 0.0247107 39.1152ZM79.5622 48.5505C79.79 46.6309 81.5306 45.2594 83.4502 45.4871L90.3069 46.3005C92.2264 46.5282 93.5979 48.2689 93.3702 50.1885C93.1425 52.108 91.4018 53.4795 89.4823 53.2518L82.6256 52.4384C80.706 52.2107 79.3345 50.47 79.5622 48.5505ZM18.3154 60.8965C19.5117 62.4149 19.2507 64.6155 17.7324 65.8118L13.6147 69.0561C12.0964 70.2524 9.89576 69.9914 8.69946 68.473C7.50316 66.9547 7.76421 64.754 9.28255 63.5577L13.4002 60.3134C14.9185 59.1171 17.1191 59.3782 18.3154 60.8965ZM72.2955 67.3C73.8138 66.1037 76.0145 66.3648 77.2108 67.8831L80.4551 72.0007C81.6514 73.519 81.3903 75.7197 79.872 76.916C78.3537 78.1123 76.153 77.8512 74.9567 76.3329L71.7124 72.2153C70.5161 70.697 70.7772 68.4963 72.2955 67.3ZM29.1854 75.8765C29.4131 73.9569 31.1538 72.5854 33.0734 72.8131L55.1591 75.4331C57.0786 75.6608 58.4501 77.4015 58.2224 79.321C57.9947 81.2406 56.254 82.6121 54.3345 82.3844L32.2487 79.7644C30.3292 79.5367 28.9577 77.796 29.1854 75.8765ZM31.5565 87.356C31.7842 85.4365 33.5249 84.065 35.4444 84.2927L50.1682 86.0393C52.0878 86.267 53.4593 88.0077 53.2315 89.9273C53.0038 91.8468 51.2631 93.2183 49.3436 92.9906L34.6198 91.244C32.7002 91.0163 31.3288 89.2756 31.5565 87.356ZM333.973 154.617C333.644 157.802 333.468 161.14 333.468 164.59C333.468 168.014 333.641 171.327 333.966 174.489C336.411 176.363 339.035 178.184 341.817 179.917C344.519 181.601 347.219 183.095 349.88 184.4C352.583 183.095 355.328 181.598 358.077 179.908C360.87 178.191 363.504 176.38 365.956 174.511C366.282 171.342 366.456 168.022 366.456 164.59C366.456 161.159 366.282 157.84 365.956 154.671C363.503 152.799 360.87 150.986 358.077 149.269C355.351 147.594 352.63 146.105 349.951 144.804C347.261 146.106 344.529 147.596 341.793 149.274C339.02 150.974 336.407 152.767 333.973 154.617ZM335.536 144.953C336.388 144.395 337.254 143.846 338.134 143.306C339.279 142.604 340.427 141.93 341.576 141.285C339.983 140.723 338.422 140.233 336.902 139.818C336.398 141.442 335.94 143.157 335.536 144.953ZM332.451 131.685C331.62 131.55 330.801 131.438 329.995 131.347C320.877 130.325 311.981 132.089 308.143 139.172C304.387 146.107 307.295 154.875 312.642 162.662C313.074 163.291 313.526 163.921 313.999 164.551C313.516 165.198 313.054 165.844 312.615 166.489C307.285 174.306 304.418 183.104 308.141 190.003L308.154 190.027C311.997 197.014 320.877 198.776 329.987 197.775C330.788 197.687 331.603 197.577 332.429 197.445C332.494 197.594 332.559 197.742 332.625 197.889C334.553 202.221 336.941 205.936 339.771 208.616C342.619 211.313 346.069 213.09 349.962 213.09C353.854 213.09 357.304 211.313 360.153 208.616C362.982 205.936 365.37 202.221 367.299 197.889C367.348 197.778 367.397 197.667 367.446 197.556C368.274 197.688 369.091 197.799 369.894 197.887C379.036 198.89 387.945 197.08 391.778 190.009C393.661 186.549 393.823 182.563 392.922 178.618C392.023 174.682 390.026 170.567 387.261 166.519C386.826 165.883 386.37 165.245 385.894 164.606C386.37 163.969 386.826 163.333 387.261 162.698C392.604 154.889 395.509 146.088 391.783 139.181C387.971 132.111 379.064 130.352 369.945 131.366C369.137 131.456 368.315 131.569 367.48 131.703C367.42 131.565 367.36 131.428 367.299 131.291C365.37 126.959 362.982 123.244 360.153 120.564C357.304 117.867 353.854 116.09 349.962 116.09C346.069 116.09 342.619 117.867 339.771 120.564C336.941 123.244 334.553 126.959 332.625 131.291C332.567 131.422 332.509 131.553 332.451 131.685ZM339.425 133.254C342.834 134.223 346.369 135.507 349.956 137.092C353.55 135.51 357.091 134.23 360.503 133.265C358.914 129.906 357.142 127.353 355.34 125.647C353.404 123.813 351.593 123.09 349.962 123.09C348.331 123.09 346.52 123.813 344.584 125.647C342.784 127.352 341.013 129.9 339.425 133.254ZM363.025 139.83C361.499 140.245 359.931 140.734 358.331 141.297C359.469 141.938 360.607 142.608 361.743 143.306C362.641 143.858 363.527 144.421 364.397 144.993C363.991 143.187 363.532 141.463 363.025 139.83ZM373.398 161.049C373.436 162.219 373.456 163.4 373.456 164.59C373.456 165.786 373.436 166.972 373.397 168.147C374.619 166.969 375.765 165.785 376.833 164.602C375.765 163.416 374.619 162.229 373.398 161.049ZM381.259 159.069C378.695 156.309 375.779 153.584 372.565 150.968C371.961 146.484 371.064 142.265 369.913 138.421C370.184 138.386 370.453 138.353 370.719 138.324C379.246 137.375 383.986 139.469 385.622 142.503C387.344 145.695 386.549 151.342 381.484 158.745C381.41 158.853 381.335 158.961 381.259 159.069ZM381.254 170.138C378.69 172.891 375.776 175.608 372.564 178.217C371.956 182.73 371.051 186.973 369.89 190.837C370.148 190.87 370.404 190.901 370.657 190.928C379.171 191.863 383.958 189.748 385.625 186.671L385.629 186.664C386.468 185.124 386.742 182.998 386.098 180.177C385.451 177.346 383.921 174.039 381.481 170.468C381.406 170.358 381.33 170.248 381.254 170.138ZM362.999 189.434C363.516 187.776 363.985 186.022 364.398 184.184C363.527 184.756 362.642 185.319 361.743 185.872C360.574 186.59 359.402 187.278 358.23 187.935C359.856 188.513 361.448 189.012 362.999 189.434ZM341.518 187.888C340.382 187.24 339.247 186.564 338.115 185.858C337.24 185.313 336.377 184.758 335.529 184.195C335.932 185.989 336.388 187.703 336.891 189.326C338.396 188.919 339.941 188.439 341.518 187.888ZM339.41 195.892C342.791 194.94 346.298 193.678 349.858 192.117C353.469 193.725 357.031 195.022 360.465 195.995C358.886 199.315 357.127 201.84 355.34 203.533C353.404 205.367 351.593 206.09 349.962 206.09C348.331 206.09 346.52 205.367 344.584 203.533C342.778 201.823 341.001 199.263 339.41 195.892ZM330 190.724C328.852 186.882 327.957 182.666 327.356 178.186C324.136 175.562 321.214 172.836 318.643 170.078C318.56 170.196 318.479 170.314 318.398 170.432C313.363 177.819 312.577 183.466 314.294 186.666C315.957 189.671 320.722 191.751 329.222 190.817C329.479 190.788 329.738 190.757 330 190.724ZM318.634 159.018C318.559 158.912 318.486 158.806 318.413 158.7C313.349 151.325 312.558 145.72 314.298 142.507C315.961 139.438 320.712 137.351 329.215 138.304C329.48 138.333 329.747 138.366 330.016 138.401C328.868 142.232 327.972 146.436 327.368 150.904C324.136 153.524 321.207 156.252 318.634 159.018ZM323.065 164.544C324.14 165.733 325.295 166.925 326.525 168.111C326.487 166.948 326.468 165.774 326.468 164.59C326.468 163.373 326.488 162.167 326.528 160.971C325.296 162.158 324.14 163.352 323.065 164.544ZM346.212 164.59C346.212 162.657 347.779 161.09 349.712 161.09H350.211C352.144 161.09 353.711 162.657 353.711 164.59C353.711 166.523 352.144 168.09 350.211 168.09H349.712C347.779 168.09 346.212 166.523 346.212 164.59Z" fill="#5F9BC1"/>
<path d="M653.303 66.194C650.172 68.8991 647.964 72.5125 646.988 76.53C646.435 78.5338 646.106 80.5924 646.007 82.6682L645.697 85.9244L650.195 86.3492C651.854 86.5009 653.524 86.5069 655.185 86.3674C659.324 86.1875 663.299 84.6983 666.537 82.1151C668.462 80.3265 669.599 77.8495 669.7 75.2261C669.8 72.6028 668.856 70.0468 667.074 68.1179C665.487 66.0625 663.157 64.7101 660.582 64.3504C658.008 63.9908 655.395 64.6526 653.303 66.194ZM662.161 76.8303C660.04 78.4874 657.448 79.4322 654.757 79.5296L653.52 79.4128L653.638 78.1777C654.239 75.5565 655.655 73.192 657.684 71.4226C658.093 71.1508 658.588 71.0365 659.076 71.1009C659.574 71.1683 660.054 71.3343 660.488 71.5892C660.921 71.8441 661.3 72.1829 661.6 72.5856C662.235 73.0768 662.649 73.798 662.754 74.5926C662.859 75.3873 662.646 76.1913 662.161 76.8303ZM725.186 24.8924C725.282 23.5735 724.865 22.2685 724.021 21.2496C723.178 20.2306 721.973 19.5764 720.657 19.4232C714.127 18.2649 707.429 18.4316 700.964 19.9132C694.498 21.3948 688.397 24.1611 683.024 28.0471L672.846 37.8482L659.62 33.7667C658.719 33.4796 657.76 33.4232 656.831 33.6027C655.902 33.7822 655.033 34.1918 654.304 34.794L650.118 38.2504C649.478 38.7894 648.966 39.4637 648.619 40.2244C648.272 40.9852 648.099 41.8134 648.111 42.6491C648.115 43.4945 648.308 44.3283 648.678 45.0888C649.047 45.8492 649.583 46.5169 650.246 47.0425L661.122 55.547L661.81 56.0651L678.065 76.0101L678.472 76.5017L684.793 88.7676C685.185 89.5166 685.741 90.1678 686.42 90.6731C687.098 91.1785 687.882 91.5249 688.713 91.6869L689.331 91.7453C690.806 91.8784 692.275 91.4272 693.421 90.489L697.607 87.0325C698.336 86.4304 698.902 85.655 699.253 84.7776C699.605 83.9002 699.729 82.9489 699.616 82.0109L698.081 68.3278L709.269 60.4347C714.187 55.8887 718.132 50.3961 720.867 44.2877C723.603 38.1794 725.071 31.5817 725.186 24.8924ZM658.222 40.7153L665.493 42.9882L661.495 46.8588L656.231 42.5664L658.222 40.7153ZM690.298 83.963L687.065 77.9932L691.623 74.7984L692.493 82.3577L690.298 83.963ZM705.038 54.8237L682.673 70.4977L667.817 52.554L687.434 33.5617C696.284 27.2766 707.226 24.6561 717.966 26.2496C717.492 37.0777 712.863 47.3099 705.038 54.8237Z" fill="#457B9D"/>
<path d="M703.053 47.6689C703.728 47.0827 704.28 46.3678 704.675 45.5661C705.07 44.7643 705.301 43.8919 705.354 43C705.407 42.1081 705.282 41.2146 704.984 40.372C704.687 39.5294 704.224 38.7546 703.623 38.0931C703.107 37.3502 702.443 36.7221 701.672 36.2485C700.901 35.7749 700.04 35.4661 699.144 35.3415C698.247 35.2169 697.334 35.2793 696.463 35.5247C695.591 35.7701 694.78 36.1932 694.081 36.7672C693.381 37.3413 692.808 38.0539 692.398 38.8601C691.988 39.6663 691.75 40.5485 691.698 41.4511C691.647 42.3537 691.783 43.2571 692.099 44.1043C692.415 44.9514 692.903 45.724 693.533 46.3731C694.071 47.0843 694.745 47.6823 695.515 48.1326C696.286 48.5829 697.138 48.8767 698.022 48.9971C698.907 49.1175 699.807 49.0622 700.67 48.8342C701.533 48.6063 702.343 48.2102 703.053 47.6689Z" fill="#457B9D"/>
<path fill-rule="evenodd" clip-rule="evenodd" d="M112.223 71.433C110.499 70.7439 108.734 70.0686 106.925 69.4081L108.982 63.7719C110.848 64.453 112.67 65.15 114.451 65.862L112.223 71.433ZM132.378 81.0976C129.249 79.3124 125.945 77.5792 122.447 75.9075L125.034 70.4939C128.662 72.2277 132.095 74.0283 135.352 75.8861L132.378 81.0976ZM150.819 93.6296C148.008 91.37 145.025 89.1531 141.843 86.9926L145.213 82.0284C148.532 84.2821 151.645 86.5953 154.578 88.9529L150.819 93.6296ZM635.43 95.3471C633.78 96.7915 632.149 98.1611 630.537 99.4593L626.774 94.7856C628.32 93.5412 629.887 92.2249 631.477 90.8328L635.43 95.3471ZM167.09 108.904C164.615 106.226 162.007 103.569 159.223 100.949L163.336 96.5799C166.232 99.3055 168.938 102.064 171.496 104.832L167.09 108.904ZM620.262 106.944C616.477 109.408 612.78 111.485 609.147 113.228L606.552 107.818C609.938 106.194 613.41 104.245 616.989 101.916L620.262 106.944ZM522.256 118.083C518.322 118.014 514.274 118.074 510.084 118.319L509.733 112.329C514.093 112.074 518.294 112.013 522.36 112.084L522.256 118.083ZM597.161 117.889C592.9 119.169 588.717 120.033 584.577 120.584L583.787 114.636C587.633 114.125 591.501 113.324 595.436 112.143L597.161 117.889ZM546.772 119.759C542.749 119.367 538.673 118.976 534.481 118.667L534.922 112.683C539.193 112.998 543.333 113.396 547.353 113.787L546.772 119.759ZM181.542 126.209C179.262 123.278 176.927 120.328 174.481 117.376L179.101 113.547C181.602 116.565 183.978 119.569 186.277 122.524L181.542 126.209ZM497.994 119.536C494.132 120.09 490.142 120.824 486.007 121.776L484.661 115.929C488.962 114.939 493.117 114.174 497.142 113.597L497.994 119.536ZM571.819 121.397C567.611 121.408 563.413 121.198 559.193 120.882L559.641 114.899C563.767 115.208 567.802 115.407 571.804 115.397L571.819 121.397ZM474.309 124.956C470.578 126.123 466.731 127.472 462.757 129.026L460.572 123.439C464.673 121.835 468.651 120.44 472.517 119.23L474.309 124.956ZM451.542 133.817C447.99 135.459 444.341 137.263 440.59 139.243L437.79 133.936C441.631 131.909 445.374 130.059 449.024 128.371L451.542 133.817ZM195.714 144.202C193.272 141.291 190.891 138.283 188.514 135.225L193.251 131.543C195.61 134.577 197.939 137.518 200.311 140.347L195.714 144.202ZM429.878 145.216C428.116 146.251 426.332 147.323 424.525 148.434L421.381 143.324C423.222 142.191 425.042 141.098 426.841 140.042L429.878 145.216ZM212.222 160.73C209.125 158.265 206.244 155.621 203.508 152.841L207.785 148.632C210.378 151.267 213.079 153.744 215.958 156.035L212.222 160.73ZM232.666 172.507C228.836 171.019 225.295 169.306 221.989 167.398L224.987 162.201C228.032 163.958 231.297 165.538 234.839 166.915L232.666 172.507ZM255.483 178.073C251.394 177.564 247.556 176.87 243.94 176.005L245.335 170.17C248.723 170.98 252.341 171.635 256.224 172.119L255.483 178.073ZM272.953 179.09C270.944 179.09 268.986 179.054 267.077 178.984L267.297 172.988C269.13 173.056 271.015 173.09 272.953 173.09V179.09Z" fill="#395A6E"/>
</svg>
