<svg width="492" height="155" viewBox="0 0 492 155" fill="none" xmlns="http://www.w3.org/2000/svg">
<path fill-rule="evenodd" clip-rule="evenodd" d="M27.5282 38.5267C27.1984 41.7116 27.0222 45.0496 27.0222 48.5C27.0222 51.9237 27.1957 55.2368 27.5206 58.3995C29.9654 60.2729 32.5896 62.0936 35.3716 63.8271C38.0733 65.5108 40.7737 67.0054 43.4348 68.3105C46.1372 67.0054 48.8823 65.508 51.6316 63.8183C54.4249 62.1013 57.0582 60.2903 59.5103 58.4213C59.8366 55.2521 60.0109 51.9316 60.0109 48.5C60.0109 45.0693 59.8367 41.7495 59.5105 38.581C57.0581 36.7089 54.4248 34.8961 51.6317 33.1794C48.9062 31.5041 46.1849 30.0153 43.5055 28.7141C40.8159 30.0156 38.084 31.5057 35.3479 33.1836C32.5751 34.8841 29.9618 36.6768 27.5282 38.5267ZM29.0904 28.8628C29.9426 28.3049 30.8089 27.7558 31.6884 27.2164C32.8338 26.514 33.9819 25.8402 35.1305 25.1955C33.5377 24.6326 31.9768 24.1434 30.457 23.7281C29.9525 25.3521 29.495 27.0672 29.0904 28.8628ZM32.9799 17.1645C36.3883 18.133 39.9234 19.4172 43.5109 21.0021C47.1048 19.4204 50.6454 18.1401 54.0582 17.1751C52.4691 13.8156 50.6966 11.2635 48.8944 9.55678C46.9584 7.7233 45.1476 7 43.5165 7C41.8855 7 40.0747 7.72329 38.1387 9.55678C36.3384 11.2617 34.5677 13.8103 32.9799 17.1645ZM61.0349 15.6131C60.9749 15.475 60.9145 15.3376 60.8537 15.201C58.9249 10.8693 56.5371 7.15374 53.7077 4.47424C50.8592 1.77661 47.409 0 43.5165 0C39.6241 0 36.1739 1.77661 33.3254 4.47425C30.496 7.15374 28.1082 10.8693 26.1794 15.201C26.1213 15.3316 26.0635 15.463 26.006 15.595C25.1747 15.4602 24.3555 15.3476 23.5497 15.2573C14.4314 14.2355 5.53527 15.9992 1.69815 23.0825C-2.0584 30.0169 0.849885 38.7846 6.19692 46.5721C6.6285 47.2007 7.08083 47.8306 7.55328 48.4611C7.07068 49.108 6.60917 49.7543 6.16943 50.3993C0.8398 58.2164 -2.02772 67.0137 1.69554 73.9127L1.7089 73.9372C5.55183 80.9239 14.4321 82.6863 23.5415 81.6847C24.3428 81.5966 25.1575 81.4865 25.9842 81.3547C26.0488 81.5037 26.1139 81.6518 26.1794 81.799C28.1082 86.1307 30.496 89.8463 33.3254 92.5258C36.1739 95.2234 39.6241 97 43.5165 97C47.409 97 50.8592 95.2234 53.7077 92.5258C56.5371 89.8463 58.9249 86.1307 60.8537 81.799C60.9029 81.6884 60.9519 81.5773 61.0006 81.4657C61.8289 81.5982 62.6453 81.7086 63.4484 81.7967C72.5912 82.8002 81.4995 80.9905 85.3331 73.9186C87.2161 70.4586 87.3778 66.4734 86.477 62.5285C85.578 58.592 83.5812 54.477 80.8159 50.4293C80.3811 49.7928 79.9252 49.1549 79.4488 48.5164C79.9249 47.8794 80.3806 47.2429 80.8153 46.6078C86.159 38.7989 89.0634 29.9981 85.338 23.0907C81.5256 16.0213 72.619 14.2625 63.4999 15.2764C62.6914 15.3663 61.8693 15.4786 61.0349 15.6131ZM56.5798 23.74C55.0533 24.1548 53.4854 24.6439 51.8852 25.2071C53.0238 25.8483 54.162 26.518 55.2973 27.2158C56.1962 27.7683 57.0812 28.3311 57.9518 28.9033C57.5459 27.0974 57.0866 25.3727 56.5798 23.74ZM66.1194 34.8784C65.5157 30.3939 64.6186 26.1752 63.4682 22.3311C63.7388 22.2957 64.0073 22.2632 64.2734 22.2336C72.8002 21.2855 77.5403 23.3787 79.1769 26.4133C80.8982 29.605 80.1039 35.2523 75.0384 42.6546C74.9644 42.7628 74.8896 42.8711 74.814 42.9795C72.2496 40.2186 69.3334 37.4945 66.1194 34.8784ZM66.9525 44.9588C66.9912 46.1286 67.0109 47.3095 67.0109 48.5C67.0109 49.6957 66.991 50.8818 66.952 52.0568C68.1732 50.8791 69.3201 49.6947 70.3878 48.5117C69.3202 47.326 68.1735 46.139 66.9525 44.9588ZM74.8085 54.048C72.245 56.8014 69.3304 59.5177 66.1186 62.1274C65.5109 66.6401 64.6059 70.8835 63.4448 74.747C63.7026 74.7801 63.9584 74.8106 64.2121 74.8385C72.7258 75.7729 77.513 73.6581 79.18 70.5809L79.1838 70.574C80.0223 69.0343 80.2969 66.9081 79.6526 64.0869C79.0062 61.256 77.4756 57.949 75.0359 54.3779C74.9609 54.2681 74.8851 54.1581 74.8085 54.048ZM56.5536 73.3441C57.071 71.6859 57.5393 69.9321 57.9523 68.0943C57.0816 68.6663 56.1964 69.2291 55.2974 69.7817C54.1288 70.4999 52.957 71.1881 51.7851 71.8454C53.4104 72.4228 55.0032 72.9224 56.5536 73.3441ZM35.073 71.7976C33.9368 71.1502 32.8016 70.4735 31.6694 69.768C30.7942 69.2226 29.9319 68.6681 29.0832 68.1052C29.4866 69.8991 29.9428 71.6128 30.4458 73.2357C31.9509 72.8288 33.4962 72.3494 35.073 71.7976ZM32.9643 79.8024C36.3458 78.8504 39.8527 77.5877 43.4123 76.0267C47.024 77.6348 50.5855 78.9321 54.02 79.9054C52.4408 83.2252 50.6822 85.7502 48.8944 87.4432C46.9584 89.2767 45.1476 90 43.5165 90C41.8855 90 40.0747 89.2767 38.1387 87.4432C36.3325 85.7327 34.556 83.173 32.9643 79.8024ZM23.5543 74.6337C22.4068 70.7917 21.5121 66.5765 20.9103 62.0963C17.691 59.4717 14.7682 56.7464 12.1974 53.9877C12.1151 54.1061 12.0336 54.2244 11.9531 54.3425C6.91726 61.7287 6.13193 67.3755 7.84894 70.5756C9.51151 73.5808 14.2766 75.6612 22.7765 74.7267C23.0337 74.6984 23.293 74.6674 23.5543 74.6337ZM12.1883 42.9284C12.114 42.8221 12.0404 42.7159 11.9676 42.6099C6.90419 35.2354 6.11258 29.6295 7.85305 26.4167C9.51539 23.3481 14.2671 21.2609 22.7702 22.2137C23.0348 22.2434 23.3017 22.2759 23.5708 22.3114C22.423 26.1425 21.5269 30.346 20.9224 34.8143C17.6906 37.4343 14.7615 40.1625 12.1883 42.9284ZM16.6195 48.4538C17.6945 49.6432 18.8496 50.8348 20.0799 52.021C20.0417 50.8578 20.0222 49.6836 20.0222 48.5C20.0222 47.2833 20.0428 46.0766 20.0832 44.8814C18.851 46.0681 17.6949 47.2616 16.6195 48.4538ZM39.7671 48.5C39.7671 46.567 41.3341 45 43.2671 45H43.7662C45.6992 45 47.2662 46.567 47.2662 48.5C47.2662 50.433 45.6992 52 43.7662 52H43.2671C41.3341 52 39.7671 50.433 39.7671 48.5Z" fill="#5F9BC1"/>
<path fill-rule="evenodd" clip-rule="evenodd" d="M192.353 11.7973C188.147 12.1137 183.896 12.7344 179.568 13.6296L178.353 7.75398C182.905 6.81239 187.413 6.15199 191.903 5.81421L192.353 11.7973ZM217.808 13.915C213.578 12.8467 209.38 12.1591 205.181 11.8159L205.67 5.83586C210.197 6.20589 214.723 6.94743 219.277 8.09774L217.808 13.915ZM166.962 16.9092C162.926 18.1558 158.808 19.5985 154.585 21.2146L152.441 15.6109C156.765 13.9559 161.009 12.4682 165.192 11.1764L166.962 16.9092ZM241.512 23.8137C237.596 21.5411 233.755 19.6194 229.971 18.0203L232.306 12.4934C236.338 14.1972 240.404 16.2337 244.524 18.6241L241.512 23.8137ZM142.387 26.2092C138.462 27.9072 134.445 29.7214 130.317 31.6354L127.793 26.192C131.955 24.2622 136.021 22.426 140.004 20.7026L142.387 26.2092ZM257.657 34.8606C255.895 33.4789 254.152 32.1668 252.425 30.9224L255.934 26.0551C257.729 27.3489 259.537 28.7098 261.36 30.1394C263.36 31.7085 265.314 33.2809 267.226 34.8538L263.413 39.4868C261.536 37.9423 259.619 36.3993 257.657 34.8606ZM118.308 37.3132C116.335 38.2596 114.338 39.2227 112.314 40.2012L109.702 34.7993C111.73 33.8192 113.733 32.8534 115.712 31.9036L118.308 37.3132ZM285.494 59.1443C282.004 55.8366 278.389 52.4814 274.611 49.1061L278.609 44.6321C282.441 48.056 286.1 51.4526 289.621 54.7891L285.494 59.1443ZM297.004 70.2324L296.192 69.4437L300.373 65.1403L301.18 65.9241C304.569 69.2175 307.845 72.4004 311.062 75.4533L306.932 79.8054C303.688 76.727 300.388 73.52 297.004 70.2324ZM329.93 99.34C325.908 96.4905 321.966 93.328 318.032 89.9283L321.955 85.3885C325.785 88.6983 329.573 91.7339 333.398 94.4443L329.93 99.34ZM357.607 112.628C352.513 111.357 347.699 109.536 343.073 107.258L345.723 101.875C350.003 103.982 354.416 105.648 359.06 106.807L357.607 112.628ZM380.724 114.492C378.072 114.684 375.493 114.746 372.978 114.684L373.127 108.686C375.441 108.743 377.827 108.686 380.292 108.508L380.724 114.492Z" fill="#395A6E"/>
<path fill-rule="evenodd" clip-rule="evenodd" d="M445.008 127.929C456.014 127.929 464.937 119.006 464.937 108C464.937 96.9938 456.014 88.0714 445.008 88.0714C434.002 88.0714 425.08 96.9938 425.08 108C425.08 119.006 434.002 127.929 445.008 127.929ZM458.294 108C458.294 115.337 452.345 121.286 445.008 121.286C437.671 121.286 431.722 115.337 431.722 108C431.722 100.663 437.671 94.7143 445.008 94.7143C452.345 94.7143 458.294 100.663 458.294 108Z" fill="#457B9D"/>
<path fill-rule="evenodd" clip-rule="evenodd" d="M398.508 104.677V111.32C398.508 116.462 402.403 120.694 407.403 121.228C407.828 122.435 408.308 123.614 408.842 124.764C405.566 128.679 405.767 134.518 409.445 138.197L414.143 142.894C417.737 146.489 423.396 146.763 427.305 143.716C428.748 144.432 430.241 145.064 431.777 145.605C432.31 150.605 436.542 154.5 441.684 154.5H448.327C453.468 154.5 457.7 150.607 458.234 145.608C459.63 145.117 460.991 144.551 462.31 143.914C466.207 146.749 471.694 146.409 475.209 142.894L479.906 138.197C483.42 134.682 483.761 129.195 480.926 125.298C481.562 123.98 482.127 122.622 482.618 121.227C487.616 120.692 491.508 116.46 491.508 111.32V104.677C491.508 99.537 487.616 95.3062 482.618 94.7704C482.077 93.2321 481.445 91.7374 480.727 90.2929C483.772 86.3838 483.498 80.7273 479.903 77.1333L475.206 72.4361C471.528 68.7584 465.691 68.5565 461.776 71.8306C460.624 71.2961 459.443 70.8146 458.234 70.3897C457.698 65.3919 453.467 61.5 448.327 61.5H441.684C436.543 61.5 432.311 65.3937 431.777 70.3931C430.42 70.8708 429.096 71.4195 427.811 72.0349C423.899 68.5498 417.897 68.6835 414.145 72.4361L409.448 77.1333C405.695 80.886 405.561 86.8872 409.047 90.8C408.43 92.0863 407.881 93.4111 407.403 94.7698C402.403 95.3032 398.508 99.5353 398.508 104.677ZM451.649 71.4643C451.649 69.6299 450.162 68.1429 448.327 68.1429H441.684C439.85 68.1429 438.363 69.6299 438.363 71.4643V72.7354C438.363 74.3148 437.245 75.6585 435.728 76.0991C433.372 76.7835 431.124 77.7219 429.015 78.8826C427.632 79.6444 425.891 79.4849 424.774 78.368L423.539 77.1333C422.242 75.8362 420.139 75.8362 418.842 77.1333L414.145 81.8305C412.848 83.1276 412.848 85.2306 414.145 86.5277L415.38 87.7625C416.496 88.8794 416.656 90.6202 415.894 92.0038C414.733 94.1134 413.794 96.3627 413.11 98.7203C412.669 100.237 411.325 101.356 409.746 101.356H408.472C406.638 101.356 405.151 102.843 405.151 104.677V111.32C405.151 113.155 406.638 114.642 408.472 114.642H409.746C411.325 114.642 412.669 115.76 413.11 117.277C413.752 119.49 414.618 121.608 415.683 123.604C416.417 124.981 416.248 126.697 415.144 127.801L414.143 128.803C412.845 130.1 412.845 132.203 414.143 133.5L418.84 138.197C420.137 139.494 422.24 139.494 423.537 138.197L424.345 137.389C425.475 136.259 427.24 136.11 428.629 136.899C430.849 138.16 433.227 139.172 435.728 139.899C437.245 140.339 438.363 141.683 438.363 143.262V144.536C438.363 146.37 439.85 147.857 441.684 147.857H448.327C450.162 147.857 451.649 146.37 451.649 144.536V143.265C451.649 141.685 452.767 140.341 454.285 139.901C456.644 139.216 458.895 138.277 461.005 137.115C462.389 136.353 464.13 136.513 465.247 137.63L465.814 138.197C467.111 139.494 469.214 139.494 470.511 138.197L475.209 133.5C476.506 132.203 476.506 130.1 475.209 128.803L474.641 128.235C473.524 127.118 473.365 125.378 474.127 123.994C475.288 121.884 476.227 119.635 476.911 117.277C477.352 115.76 478.696 114.642 480.275 114.642H481.544C483.378 114.642 484.865 113.155 484.865 111.32V104.677C484.865 102.843 483.378 101.356 481.544 101.356H480.275C478.696 101.356 477.352 100.237 476.911 98.7203C476.185 96.2186 475.172 93.8383 473.911 91.6178C473.122 90.2287 473.271 88.4631 474.4 87.3334L475.206 86.5277C476.503 85.2306 476.503 83.1276 475.206 81.8305L470.509 77.1333C469.212 75.8362 467.109 75.8362 465.812 77.1333L464.813 78.132C463.709 79.236 461.993 79.4057 460.615 78.6711C458.618 77.6061 456.499 76.7392 454.285 76.0966C452.767 75.6563 451.649 74.3125 451.649 72.7326V71.4643Z" fill="#457B9D"/>
</svg>
