<svg width="61" height="60" viewBox="0 0 61 60" fill="none" xmlns="http://www.w3.org/2000/svg">
<path d="M2.15969 58.4957L6.14457 43.9481C3.68619 39.6911 2.3934 34.8601 2.39488 29.9123C2.40227 14.4328 14.9989 1.83918 30.4798 1.83918C37.9925 1.84213 45.0422 4.76645 50.345 10.0722C55.6464 15.3795 58.5662 22.4321 58.5633 29.9345C58.5574 45.4139 45.9578 58.0091 30.4798 58.0091H30.468C25.7687 58.0076 21.1492 56.8287 17.0475 54.5907L2.15969 58.4957Z" fill="white"/>
<path d="M2.15968 59.2353C1.96443 59.2353 1.7751 59.1583 1.63458 59.0163C1.44968 58.8285 1.3772 58.5549 1.44672 58.3019L5.35024 44.0487C2.93033 39.7502 1.6538 34.869 1.65676 29.9137C1.66268 14.0245 14.5921 1.09959 30.4798 1.09959C38.1863 1.10255 45.4268 4.10378 50.8686 9.55007C56.3105 14.9978 59.3058 22.2369 59.3028 29.9345C59.2969 45.8222 46.3661 58.7486 30.4798 58.7486C25.7627 58.7471 21.096 57.583 16.9543 55.3806L2.34753 59.2101C2.28541 59.2279 2.22328 59.2353 2.15968 59.2353Z" fill="white"/>
<path d="M30.4798 1.83918C37.9925 1.84213 45.0422 4.76645 50.345 10.0722C55.6464 15.3795 58.5662 22.4321 58.5633 29.9345C58.5574 45.4139 45.9578 58.0091 30.4798 58.0091H30.468C25.7687 58.0076 21.1492 56.8287 17.0475 54.5907L2.15969 58.4957L6.14457 43.9481C3.68619 39.6911 2.3934 34.8601 2.39488 29.9123C2.40227 14.4328 14.9989 1.83918 30.4798 1.83918ZM30.4798 0.360001C14.1853 0.360001 0.923123 13.6163 0.915728 29.9123C0.914248 34.8926 2.17154 39.8005 4.55596 44.1448L0.732311 58.1067C0.593269 58.617 0.735269 59.1613 1.10802 59.537C1.38906 59.821 1.76921 59.9763 2.15971 59.9763C2.28544 59.9763 2.41117 59.9601 2.53542 59.9275L16.8641 56.1704C21.0472 58.3419 25.7361 59.4882 30.468 59.4897C46.7743 59.4897 60.0365 46.2319 60.0439 29.9359C60.0469 22.0387 56.9747 14.6132 51.3938 9.02792C45.8099 3.4411 38.383 0.362959 30.4798 0.360001Z" fill="#CFD8DC"/>
<path d="M46.9903 13.424C42.5824 9.01313 36.7234 6.58286 30.4872 6.58138C17.6126 6.58138 7.14155 17.048 7.13563 29.9138C7.13415 34.3232 8.36777 38.6157 10.7049 42.3328L11.261 43.2159L8.90175 51.8261L17.7368 49.5098L18.5903 50.0156C22.1728 52.1427 26.282 53.2668 30.471 53.2683H30.4798C43.3456 53.2683 53.8166 42.8003 53.8211 29.933C53.8226 23.6983 51.3982 17.8349 46.9903 13.424Z" fill="#40C351"/>
<path fill-rule="evenodd" clip-rule="evenodd" d="M23.4597 18.1766C22.9346 17.008 22.3814 16.9844 21.8799 16.9636C21.4702 16.9459 21.0028 16.9474 20.5354 16.9474C20.068 16.9474 19.3077 17.1234 18.6642 17.826C18.0208 18.5286 16.2073 20.2252 16.2073 23.6776C16.2073 27.13 18.7219 30.467 19.0725 30.9344C19.423 31.4018 23.9271 38.7133 31.0596 41.5267C36.9867 43.8638 38.1937 43.3993 39.4805 43.2825C40.7674 43.1656 43.6326 41.5859 44.2168 39.9469C44.8011 38.308 44.8011 36.9043 44.6266 36.6114C44.4505 36.3185 43.9831 36.144 43.282 35.792C42.5809 35.4399 39.13 33.7433 38.4865 33.5096C37.8431 33.2759 37.3757 33.159 36.9068 33.8616C36.4394 34.5628 35.0948 36.144 34.6851 36.6114C34.2753 37.0803 33.8656 37.1395 33.1645 36.7874C32.4634 36.4354 30.2032 35.6958 27.5215 33.3055C25.4358 31.4462 24.0277 29.149 23.618 28.4464C23.2082 27.7453 23.5736 27.3651 23.9256 27.0146C24.2407 26.6995 24.6267 26.1951 24.9788 25.7854C25.3293 25.3757 25.4462 25.0828 25.6799 24.6154C25.9136 24.1465 25.7968 23.7367 25.6207 23.3862C25.4477 23.0341 24.0839 19.564 23.4597 18.1766Z" fill="white"/>
</svg>
