<svg width="30" height="30" viewBox="0 0 30 30" fill="none" xmlns="http://www.w3.org/2000/svg">
<path d="M2.72727 0C1.22045 0 0 1.22045 0 2.72727V27.2727C0 28.7795 1.22045 30 2.72727 30H27.2727C28.7795 30 30 28.7795 30 27.2727V2.72727C30 1.22045 28.7795 0 27.2727 0H2.72727ZM2.72727 2.72727H27.2727V10.9091H22.8276C21.1024 8.43807 18.2423 6.81818 15 6.81818C11.7577 6.81818 8.89759 8.43807 7.17241 10.9091H2.72727V2.72727ZM23.1818 5.45455V8.18182H25.9091V5.45455H23.1818ZM15 9.54545C18.7595 9.54545 21.8182 12.6041 21.8182 16.3636C21.8182 20.1232 18.7595 23.1818 15 23.1818C11.2405 23.1818 8.18182 20.1232 8.18182 16.3636C8.18182 12.6041 11.2405 9.54545 15 9.54545ZM15 12.2727C14.3686 12.2727 13.7794 12.4279 13.2449 12.6829C13.4862 12.9283 13.6364 13.2641 13.6364 13.6364C13.6364 14.3891 13.0255 15 12.2727 15C11.9005 15 11.5647 14.8499 11.3192 14.6085C11.0642 15.143 10.9091 15.7323 10.9091 16.3636C10.9091 18.6232 12.7405 20.4545 15 20.4545C17.2595 20.4545 19.0909 18.6232 19.0909 16.3636C19.0909 14.1041 17.2595 12.2727 15 12.2727Z" fill="white"/>
</svg>
