<svg width="30" height="30" viewBox="0 0 30 30" fill="none" xmlns="http://www.w3.org/2000/svg">
<path d="M11.3205 2.46783L12.5374 4.64832C13.6356 6.6161 13.1947 9.1975 11.4651 10.9272C11.4651 10.9272 9.36727 13.0253 13.1709 16.8291C16.9734 20.6316 19.0729 18.535 19.0729 18.535C20.8026 16.8053 23.3839 16.3645 25.3517 17.4627L27.5321 18.6795C30.5036 20.3378 30.8544 24.5048 28.2427 27.1167C26.6734 28.6861 24.7507 29.9073 22.6254 29.9877C19.0477 30.1234 12.9718 29.218 6.87694 23.1231C0.782122 17.0282 -0.123352 10.9523 0.0122851 7.37456C0.0928538 5.24926 1.314 3.32669 2.8834 1.75731C5.49518 -0.854477 9.66219 -0.503551 11.3205 2.46783Z" fill="white"/>
</svg>
