<svg width="156" height="142" viewBox="0 0 156 142" fill="none" xmlns="http://www.w3.org/2000/svg">
<path d="M118.695 68.2706L97.8291 68.63L21.4814 141.882H31.8116C36.2583 141.882 41.5849 143.009 47.0604 138.288L76.6144 109.821L105.491 141.882H138.808L94.2033 92.1369L118.695 68.2706Z" fill="#D9D9D9"/>
<path d="M16.3608 24.5852V10.4954C16.3608 2.73171 20.3287 6.35522e-06 26.1437 4.51758e-07C31.9586 -5.4517e-06 36.2002 4.9334e-05 44.136 4.51758e-07C52.0719 -4.84305e-05 53.44 3.73808 53.44 10.4954V19.2656C53.44 23.5788 49.3226 25.8732 48.9933 26.1667L75.1163 54.9824L56.1559 73.2307L19.2341 32.0614C17.237 29.2587 16.7871 27.5979 16.3608 24.5852Z" fill="#D9D9D9"/>
<path d="M54.6612 77.3283L91.3266 42.1039L106.194 57.7752C106.194 57.7752 28.8205 132.25 22.2529 138.432C15.6852 144.614 7.81799 141.379 4.8078 138.432C1.79762 135.484 -2.65948 125.78 2.06101 120.891C6.7815 116.003 38.7401 85.5233 42.366 82.0009C45.9918 78.4785 50.5735 79.3776 54.6612 77.3283Z" fill="#D9D9D9"/>
<path d="M76.5234 53.7623L63.2127 39.0959L96.6454 6.95328C101.163 2.7625 103.511 0.0989627 108.002 0.0503036C112.492 0.00164454 156 0.0503036 156 0.0503036L102.246 51.0291L91.5057 39.3834L76.5234 53.7623Z" fill="#D9D9D9"/>
</svg>
