<svg width="44" height="40" viewBox="0 0 44 40" fill="none" xmlns="http://www.w3.org/2000/svg">
<path d="M33.478 19.2311L27.5928 19.3324L6.05884 39.9669H8.97249C10.2267 39.9669 11.7291 40.2843 13.2734 38.9544L21.6092 30.9355L29.7539 39.9669H39.1509L26.5702 25.9541L33.478 19.2311Z" fill="#252422"/>
<path d="M4.61457 6.9254V2.95646C4.61457 0.769496 5.73374 1.7902e-06 7.37385 1.27256e-07C9.01397 -1.53569e-06 10.2103 1.38969e-05 12.4486 1.27256e-07C14.6869 -1.36424e-05 15.0728 1.05298 15.0728 2.95646V5.42692C15.0728 6.6419 13.9115 7.28821 13.8186 7.37089L21.1867 15.488L15.8389 20.6284L5.42499 9.03137C4.86172 8.24188 4.73481 7.77405 4.61457 6.9254Z" fill="url(#paint0_linear_43_56)"/>
<path d="M15.4173 21.7826L25.7588 11.8603L29.9522 16.2747C29.9522 16.2747 8.12885 37.2534 6.27644 38.9949C4.42404 40.7363 2.20507 39.8251 1.35605 38.9949C0.507021 38.1646 -0.75011 35.4309 0.581311 34.0539C1.91273 32.677 10.9267 24.0911 11.9494 23.0988C12.972 22.1066 14.2643 22.3599 15.4173 21.7826Z" fill="url(#paint1_linear_43_56)"/>
<path d="M21.5835 15.1443L17.8292 11.0129L27.259 1.95867C28.5332 0.778167 29.1955 0.0278768 30.462 0.01417C31.7286 0.000463252 44 0.01417 44 0.01417L28.8387 14.3744L25.8093 11.0939L21.5835 15.1443Z" fill="#252422"/>
<defs>
<linearGradient id="paint0_linear_43_56" x1="-5.02062" y1="-7.89243" x2="32.1185" y2="57.0542" gradientUnits="userSpaceOnUse">
<stop stop-color="#252422"/>
</linearGradient>
<linearGradient id="paint1_linear_43_56" x1="5.53526" y1="34.7579" x2="42.5959" y2="-1.94849" gradientUnits="userSpaceOnUse">
<stop stop-color="#252422"/>
</linearGradient>
</defs>
</svg>
