<svg width="2332" height="622" viewBox="0 0 2332 622" fill="none" xmlns="http://www.w3.org/2000/svg">
<path d="M92.1459 622C28.3514 622 0.000256308 600.715 0 529.764V92.2358C0 23.6502 33.0769 0 92.1459 0H2116.99C2185.51 0 2202.05 33.1103 2202.05 85.1407V449.354L2332 622H92.1459Z" fill="#88CD9F"/>
<path d="M308.837 310.248V309.764C308.89 304.631 309.427 300.546 310.448 297.509C311.468 294.472 312.918 292.013 314.797 290.131C316.677 288.25 318.932 286.517 321.563 284.931C323.147 283.964 324.57 282.821 325.832 281.504C327.094 280.161 328.087 278.615 328.812 276.869C329.564 275.122 329.94 273.187 329.94 271.063C329.94 268.43 329.322 266.145 328.087 264.21C326.852 262.275 325.201 260.784 323.134 259.736C321.066 258.687 318.771 258.163 316.247 258.163C314.045 258.163 311.924 258.62 309.884 259.534C307.843 260.448 306.138 261.886 304.769 263.847C303.4 265.809 302.608 268.376 302.393 271.547H292.244C292.459 266.978 293.64 263.068 295.788 259.816C297.963 256.564 300.822 254.078 304.366 252.358C307.937 250.638 311.897 249.778 316.247 249.778C320.972 249.778 325.08 250.719 328.571 252.6C332.088 254.481 334.8 257.061 336.706 260.34C338.639 263.619 339.606 267.355 339.606 271.547C339.606 274.503 339.149 277.178 338.236 279.569C337.35 281.961 336.062 284.098 334.37 285.979C332.705 287.86 330.692 289.527 328.329 290.978C325.966 292.456 324.073 294.015 322.65 295.654C321.227 297.267 320.194 299.188 319.549 301.419C318.905 303.65 318.556 306.431 318.502 309.764V310.248H308.837ZM313.992 334.113C312.005 334.113 310.3 333.401 308.877 331.976C307.454 330.552 306.742 328.845 306.742 326.856C306.742 324.868 307.454 323.161 308.877 321.737C310.3 320.312 312.005 319.6 313.992 319.6C315.978 319.6 317.683 320.312 319.106 321.737C320.529 323.161 321.241 324.868 321.241 326.856C321.241 328.173 320.905 329.383 320.234 330.485C319.59 331.586 318.717 332.473 317.616 333.145C316.542 333.79 315.334 334.113 313.992 334.113Z" fill="#252422"/>
<path d="M239.425 356.688C237.814 356.688 236.378 356.554 235.116 356.285C233.854 356.043 232.981 355.801 232.498 355.559L234.915 347.174C237.224 347.765 239.264 347.98 241.036 347.819C242.808 347.658 244.379 346.865 245.748 345.441C247.144 344.043 248.42 341.772 249.574 338.628L251.346 333.79L228.471 271.547H238.781L255.857 320.89H256.501L273.577 271.547H283.887L257.629 342.498C256.447 345.696 254.984 348.343 253.239 350.439C251.494 352.563 249.467 354.135 247.158 355.156C244.875 356.177 242.298 356.688 239.425 356.688Z" fill="#252422"/>
<path d="M192.98 334.758C187.395 334.758 182.495 333.427 178.28 330.767C174.091 328.106 170.816 324.384 168.453 319.6C166.117 314.816 164.949 309.226 164.949 302.83C164.949 296.38 166.117 290.75 168.453 285.939C170.816 281.128 174.091 277.393 178.28 274.732C182.495 272.071 187.395 270.741 192.98 270.741C198.564 270.741 203.451 272.071 207.639 274.732C211.855 277.393 215.13 281.128 217.466 285.939C219.829 290.75 221.01 296.38 221.01 302.83C221.01 309.226 219.829 314.816 217.466 319.6C215.13 324.384 211.855 328.106 207.639 330.767C203.451 333.427 198.564 334.758 192.98 334.758ZM192.98 326.211C197.222 326.211 200.712 325.123 203.451 322.946C206.189 320.769 208.216 317.907 209.532 314.359C210.848 310.812 211.505 306.969 211.505 302.83C211.505 298.691 210.848 294.835 209.532 291.26C208.216 287.686 206.189 284.797 203.451 282.593C200.712 280.389 197.222 279.287 192.98 279.287C188.738 279.287 185.247 280.389 182.509 282.593C179.77 284.797 177.743 287.686 176.427 291.26C175.112 294.835 174.454 298.691 174.454 302.83C174.454 306.969 175.112 310.812 176.427 314.359C177.743 317.907 179.77 320.769 182.509 322.946C185.247 325.123 188.738 326.211 192.98 326.211Z" fill="#252422"/>
<path d="M110.348 296.219V333.468H100.844V250.907H110.348V281.222H111.154C112.604 278.024 114.778 275.484 117.678 273.603C120.605 271.695 124.498 270.741 129.358 270.741C133.573 270.741 137.265 271.588 140.433 273.281C143.601 274.947 146.058 277.514 147.803 280.98C149.575 284.42 150.461 288.801 150.461 294.122V333.468H140.956V294.767C140.956 289.849 139.681 286.046 137.13 283.359C134.606 280.644 131.103 279.287 126.619 279.287C123.504 279.287 120.712 279.946 118.242 281.263C115.799 282.579 113.866 284.501 112.443 287.027C111.046 289.554 110.348 292.617 110.348 296.219Z" fill="#252422"/>
<path d="M1937.78 196.297V134.376H1946.96V143.729H1947.61C1948.74 140.665 1950.78 138.179 1953.73 136.271C1956.68 134.363 1960.01 133.409 1963.72 133.409C1964.42 133.409 1965.29 133.422 1966.34 133.449C1967.38 133.476 1968.17 133.516 1968.71 133.57V143.245C1968.39 143.164 1967.65 143.043 1966.5 142.882C1965.37 142.694 1964.17 142.6 1962.91 142.6C1959.9 142.6 1957.22 143.231 1954.86 144.495C1952.52 145.731 1950.67 147.451 1949.3 149.655C1947.96 151.832 1947.29 154.318 1947.29 157.113V196.297H1937.78Z" fill="#252422"/>
<path d="M1892.08 197.748C1888.16 197.748 1884.6 197.009 1881.41 195.531C1878.21 194.026 1875.68 191.862 1873.8 189.04C1871.92 186.192 1870.98 182.751 1870.98 178.72C1870.98 175.173 1871.68 172.297 1873.07 170.093C1874.47 167.863 1876.33 166.116 1878.67 164.853C1881.01 163.589 1883.58 162.649 1886.4 162.031C1889.25 161.386 1892.11 160.875 1894.98 160.499C1898.74 160.015 1901.79 159.652 1904.12 159.41C1906.49 159.142 1908.2 158.698 1909.28 158.08C1910.38 157.462 1910.93 156.387 1910.93 154.855V154.533C1910.93 150.555 1909.84 147.464 1907.67 145.261C1905.52 143.057 1902.26 141.955 1897.88 141.955C1893.34 141.955 1889.79 142.949 1887.21 144.938C1884.63 146.927 1882.82 149.05 1881.77 151.307L1872.75 148.082C1874.36 144.32 1876.51 141.391 1879.19 139.294C1881.9 137.171 1884.86 135.693 1888.05 134.86C1891.28 134 1894.44 133.57 1897.56 133.57C1899.54 133.57 1901.83 133.812 1904.4 134.295C1907.01 134.752 1909.52 135.706 1911.94 137.158C1914.38 138.609 1916.41 140.799 1918.02 143.729C1919.63 146.658 1920.43 150.582 1920.43 155.5V196.297H1910.93V187.912H1910.45C1909.8 189.255 1908.73 190.693 1907.22 192.225C1905.72 193.757 1903.72 195.06 1901.22 196.135C1898.73 197.21 1895.68 197.748 1892.08 197.748ZM1893.53 189.202C1897.29 189.202 1900.46 188.462 1903.04 186.984C1905.64 185.506 1907.6 183.598 1908.91 181.26C1910.26 178.922 1910.93 176.463 1910.93 173.883V165.175C1910.53 165.659 1909.64 166.102 1908.27 166.505C1906.93 166.882 1905.37 167.218 1903.6 167.513C1901.85 167.782 1900.15 168.024 1898.48 168.239C1896.85 168.427 1895.52 168.588 1894.5 168.723C1892.03 169.045 1889.72 169.569 1887.57 170.295C1885.45 170.994 1883.73 172.055 1882.42 173.48C1881.13 174.877 1880.48 176.785 1880.48 179.204C1880.48 182.51 1881.7 185.009 1884.15 186.702C1886.62 188.368 1889.74 189.202 1893.53 189.202Z" fill="#252422"/>
<path d="M1810.75 196.297V189.04L1845.87 143.89V143.245H1811.88V134.376H1858.11V141.955L1823.96 186.783V187.428H1859.24V196.297H1810.75Z" fill="#252422"/>
<path d="M1772.45 197.587C1766.49 197.587 1761.35 196.27 1757.02 193.636C1752.73 190.975 1749.41 187.267 1747.08 182.51C1744.77 177.726 1743.61 172.163 1743.61 165.82C1743.61 159.478 1744.77 153.888 1747.08 149.05C1749.41 144.186 1752.66 140.396 1756.82 137.682C1761.01 134.94 1765.9 133.57 1771.48 133.57C1774.7 133.57 1777.89 134.107 1781.03 135.182C1784.17 136.257 1787.03 138.004 1789.6 140.423C1792.18 142.815 1794.24 145.986 1795.77 149.937C1797.3 153.888 1798.06 158.752 1798.06 164.53V168.561H1750.38V160.338H1788.4C1788.4 156.844 1787.7 153.726 1786.3 150.985C1784.93 148.244 1782.97 146.08 1780.42 144.495C1777.9 142.909 1774.92 142.116 1771.48 142.116C1767.7 142.116 1764.42 143.057 1761.65 144.938C1758.92 146.792 1756.81 149.211 1755.33 152.194C1753.86 155.178 1753.12 158.376 1753.12 161.789V167.271C1753.12 171.948 1753.92 175.912 1755.53 179.164C1757.17 182.389 1759.44 184.848 1762.34 186.541C1765.24 188.207 1768.61 189.04 1772.45 189.04C1774.95 189.04 1777.2 188.691 1779.21 187.992C1781.25 187.267 1783.01 186.192 1784.49 184.767C1785.97 183.316 1787.11 181.515 1787.91 179.365L1797.1 181.945C1796.13 185.063 1794.5 187.804 1792.22 190.169C1789.94 192.507 1787.12 194.335 1783.76 195.652C1780.41 196.942 1776.64 197.587 1772.45 197.587Z" fill="#252422"/>
<path d="M1677.4 219.517V134.376H1686.58V144.212H1687.71C1688.41 143.137 1689.38 141.767 1690.61 140.101C1691.87 138.407 1693.67 136.902 1696.01 135.585C1698.37 134.242 1701.57 133.57 1705.59 133.57C1710.8 133.57 1715.39 134.873 1719.37 137.48C1723.34 140.087 1726.44 143.782 1728.67 148.566C1730.9 153.35 1732.01 158.994 1732.01 165.498C1732.01 172.055 1730.9 177.739 1728.67 182.55C1726.44 187.334 1723.35 191.042 1719.41 193.676C1715.46 196.283 1710.91 197.587 1705.76 197.587C1701.78 197.587 1698.6 196.928 1696.21 195.611C1693.82 194.268 1691.98 192.749 1690.69 191.056C1689.4 189.336 1688.41 187.912 1687.71 186.783H1686.91V219.517H1677.4ZM1686.75 165.336C1686.75 170.013 1687.43 174.138 1688.8 177.712C1690.17 181.26 1692.17 184.042 1694.8 186.057C1697.43 188.046 1700.65 189.04 1704.47 189.04C1708.44 189.04 1711.76 187.992 1714.41 185.896C1717.1 183.773 1719.11 180.924 1720.45 177.35C1721.82 173.748 1722.51 169.744 1722.51 165.336C1722.51 160.983 1721.84 157.059 1720.5 153.565C1719.18 150.044 1717.18 147.263 1714.49 145.22C1711.84 143.151 1708.49 142.116 1704.47 142.116C1700.6 142.116 1697.35 143.097 1694.72 145.059C1692.09 146.994 1690.1 149.708 1688.76 153.202C1687.42 156.669 1686.75 160.714 1686.75 165.336Z" fill="#252422"/>
<path d="M1578.83 196.297V134.376H1588.02V144.051H1588.82C1590.11 140.746 1592.19 138.179 1595.06 136.351C1597.94 134.497 1601.39 133.57 1605.41 133.57C1609.49 133.57 1612.89 134.497 1615.6 136.351C1618.34 138.179 1620.48 140.746 1622.01 144.051H1622.65C1624.23 140.853 1626.61 138.313 1629.78 136.432C1632.95 134.524 1636.75 133.57 1641.18 133.57C1646.71 133.57 1651.23 135.303 1654.75 138.77C1658.27 142.21 1660.02 147.572 1660.02 154.855V196.297H1650.52V154.855C1650.52 150.286 1649.27 147.021 1646.77 145.059C1644.28 143.097 1641.34 142.116 1637.95 142.116C1633.6 142.116 1630.24 143.433 1627.85 146.067C1625.46 148.674 1624.26 151.979 1624.26 155.984V196.297H1614.6V153.887C1614.6 150.367 1613.45 147.532 1611.17 145.381C1608.89 143.205 1605.95 142.116 1602.35 142.116C1599.88 142.116 1597.57 142.775 1595.43 144.091C1593.3 145.408 1591.59 147.236 1590.27 149.574C1588.98 151.885 1588.34 154.559 1588.34 157.596V196.297H1578.83Z" fill="#252422"/>
<path d="M1538.76 197.587C1532.8 197.587 1527.66 196.27 1523.34 193.636C1519.04 190.975 1515.72 187.267 1513.39 182.51C1511.08 177.726 1509.92 172.163 1509.92 165.82C1509.92 159.478 1511.08 153.888 1513.39 149.05C1515.72 144.186 1518.97 140.396 1523.13 137.682C1527.32 134.94 1532.21 133.57 1537.79 133.57C1541.02 133.57 1544.2 134.107 1547.34 135.182C1550.48 136.257 1553.34 138.004 1555.92 140.423C1558.49 142.815 1560.55 145.986 1562.08 149.937C1563.61 153.888 1564.37 158.752 1564.37 164.53V168.561H1516.69V160.338H1554.71C1554.71 156.844 1554.01 153.726 1552.61 150.985C1551.25 148.244 1549.29 146.08 1546.74 144.495C1544.21 142.909 1541.23 142.116 1537.79 142.116C1534.01 142.116 1530.73 143.057 1527.97 144.938C1525.23 146.792 1523.12 149.211 1521.64 152.194C1520.17 155.178 1519.43 158.376 1519.43 161.789V167.271C1519.43 171.948 1520.23 175.912 1521.85 179.164C1523.48 182.389 1525.75 184.848 1528.65 186.541C1531.55 188.207 1534.92 189.04 1538.76 189.04C1541.26 189.04 1543.51 188.691 1545.53 187.992C1547.57 187.267 1549.33 186.192 1550.8 184.767C1552.28 183.316 1553.42 181.515 1554.23 179.365L1563.41 181.945C1562.44 185.063 1560.82 187.804 1558.54 190.169C1556.25 192.507 1553.43 194.335 1550.08 195.652C1546.72 196.942 1542.95 197.587 1538.76 197.587Z" fill="#252422"/>
<path d="M1465.49 148.244L1456.96 150.662C1456.42 149.238 1455.63 147.854 1454.58 146.51C1453.56 145.14 1452.16 144.011 1450.39 143.124C1448.62 142.237 1446.35 141.794 1443.58 141.794C1439.8 141.794 1436.64 142.667 1434.12 144.414C1431.62 146.134 1430.37 148.324 1430.37 150.985C1430.37 153.35 1431.23 155.218 1432.95 156.588C1434.67 157.959 1437.36 159.101 1441.01 160.015L1450.19 162.273C1455.72 163.616 1459.84 165.672 1462.55 168.44C1465.26 171.182 1466.62 174.716 1466.62 179.043C1466.62 182.59 1465.6 185.762 1463.56 188.557C1461.55 191.352 1458.73 193.555 1455.1 195.168C1451.48 196.78 1447.26 197.587 1442.46 197.587C1436.15 197.587 1430.93 196.216 1426.79 193.475C1422.66 190.733 1420.04 186.729 1418.94 181.461L1427.96 179.204C1428.82 182.536 1430.44 185.036 1432.83 186.702C1435.25 188.368 1438.4 189.202 1442.3 189.202C1446.73 189.202 1450.24 188.261 1452.85 186.38C1455.48 184.472 1456.79 182.187 1456.79 179.526C1456.79 177.376 1456.04 175.576 1454.54 174.125C1453.04 172.646 1450.73 171.545 1447.61 170.819L1437.3 168.4C1431.64 167.056 1427.47 164.974 1424.82 162.152C1422.19 159.303 1420.87 155.742 1420.87 151.469C1420.87 147.975 1421.85 144.884 1423.81 142.197C1425.8 139.509 1428.5 137.4 1431.9 135.868C1435.34 134.336 1439.23 133.57 1443.58 133.57C1449.71 133.57 1454.51 134.914 1458 137.601C1461.52 140.289 1464.02 143.836 1465.49 148.244Z" fill="#252422"/>
<path d="M1381.6 197.587C1375.64 197.587 1370.5 196.27 1366.18 193.636C1361.88 190.975 1358.57 187.267 1356.23 182.51C1353.92 177.726 1352.77 172.163 1352.77 165.82C1352.77 159.478 1353.92 153.888 1356.23 149.05C1358.57 144.186 1361.82 140.396 1365.98 137.682C1370.17 134.94 1375.05 133.57 1380.64 133.57C1383.86 133.57 1387.04 134.107 1390.18 135.182C1393.32 136.257 1396.18 138.004 1398.76 140.423C1401.34 142.815 1403.39 145.986 1404.92 149.937C1406.45 153.888 1407.22 158.752 1407.22 164.53V168.561H1359.53V160.338H1397.55C1397.55 156.844 1396.85 153.726 1395.46 150.985C1394.09 148.244 1392.13 146.08 1389.58 144.495C1387.05 142.909 1384.07 142.116 1380.64 142.116C1376.85 142.116 1373.58 143.057 1370.81 144.938C1368.07 146.792 1365.96 149.211 1364.49 152.194C1363.01 155.178 1362.27 158.376 1362.27 161.789V167.271C1362.27 171.948 1363.08 175.912 1364.69 179.164C1366.33 182.389 1368.59 184.848 1371.49 186.541C1374.39 188.207 1377.76 189.04 1381.6 189.04C1384.1 189.04 1386.36 188.691 1388.37 187.992C1390.41 187.267 1392.17 186.192 1393.65 184.767C1395.12 183.316 1396.26 181.515 1397.07 179.365L1406.25 181.945C1405.28 185.063 1403.66 187.804 1401.38 190.169C1399.1 192.507 1396.28 194.335 1392.92 195.652C1389.56 196.942 1385.79 197.587 1381.6 197.587Z" fill="#252422"/>
<path d="M1315.35 196.297V134.376H1324.54V143.729H1325.18C1326.31 140.665 1328.35 138.179 1331.3 136.271C1334.26 134.363 1337.58 133.409 1341.29 133.409C1341.99 133.409 1342.86 133.422 1343.91 133.449C1344.95 133.476 1345.75 133.516 1346.28 133.57V143.245C1345.96 143.164 1345.22 143.043 1344.07 142.882C1342.94 142.694 1341.75 142.6 1340.48 142.6C1337.48 142.6 1334.79 143.231 1332.43 144.495C1330.09 145.731 1328.24 147.451 1326.87 149.655C1325.53 151.832 1324.86 154.318 1324.86 157.113V196.297H1315.35Z" fill="#252422"/>
<path d="M1275.28 197.587C1269.32 197.587 1264.18 196.27 1259.86 193.636C1255.56 190.975 1252.24 187.267 1249.91 182.51C1247.6 177.726 1246.45 172.163 1246.45 165.82C1246.45 159.478 1247.6 153.888 1249.91 149.05C1252.24 144.186 1255.49 140.396 1259.66 137.682C1263.84 134.94 1268.73 133.57 1274.31 133.57C1277.54 133.57 1280.72 134.107 1283.86 135.182C1287 136.257 1289.86 138.004 1292.44 140.423C1295.02 142.815 1297.07 145.986 1298.6 149.937C1300.13 153.888 1300.9 158.752 1300.9 164.53V168.561H1253.21V160.338H1291.23C1291.23 156.844 1290.53 153.726 1289.14 150.985C1287.77 148.244 1285.81 146.08 1283.26 144.495C1280.73 142.909 1277.75 142.116 1274.31 142.116C1270.53 142.116 1267.25 143.057 1264.49 144.938C1261.75 146.792 1259.64 149.211 1258.16 152.194C1256.69 155.178 1255.95 158.376 1255.95 161.789V167.271C1255.95 171.948 1256.76 175.912 1258.37 179.164C1260 182.389 1262.27 184.848 1265.17 186.541C1268.07 188.207 1271.44 189.04 1275.28 189.04C1277.78 189.04 1280.03 188.691 1282.05 187.992C1284.09 187.267 1285.85 186.192 1287.32 184.767C1288.8 183.316 1289.94 181.515 1290.75 179.365L1299.93 181.945C1298.96 185.063 1297.34 187.804 1295.06 190.169C1292.77 192.507 1289.95 194.335 1286.6 195.652C1283.24 196.942 1279.47 197.587 1275.28 197.587Z" fill="#252422"/>
<path d="M1222.43 196.297V134.376H1231.94V196.297H1222.43ZM1227.26 124.056C1225.41 124.056 1223.81 123.424 1222.47 122.161C1221.16 120.898 1220.5 119.38 1220.5 117.606C1220.5 115.832 1221.16 114.314 1222.47 113.051C1223.81 111.787 1225.41 111.156 1227.26 111.156C1229.12 111.156 1230.7 111.787 1232.02 113.051C1233.36 114.314 1234.03 115.832 1234.03 117.606C1234.03 119.38 1233.36 120.898 1232.02 122.161C1230.7 123.424 1229.12 124.056 1227.26 124.056Z" fill="#252422"/>
<path d="M1195.52 170.98V134.376H1205.02V196.297H1195.52V185.815H1194.87C1193.43 188.96 1191.17 191.634 1188.11 193.838C1185.05 196.014 1181.18 197.103 1176.51 197.103C1172.64 197.103 1169.21 196.256 1166.2 194.563C1163.19 192.843 1160.83 190.263 1159.11 186.823C1157.39 183.356 1156.53 178.989 1156.53 173.721V134.376H1166.04V173.076C1166.04 177.591 1167.3 181.193 1169.82 183.88C1172.38 186.568 1175.62 187.912 1179.57 187.912C1181.93 187.912 1184.34 187.307 1186.78 186.097C1189.25 184.888 1191.32 183.034 1192.98 180.534C1194.67 178.035 1195.52 174.85 1195.52 170.98Z" fill="#252422"/>
<path d="M1129.63 219.517V186.783H1128.83C1128.13 187.912 1127.13 189.336 1125.85 191.056C1124.56 192.749 1122.72 194.268 1120.33 195.611C1117.94 196.928 1114.76 197.587 1110.78 197.587C1105.63 197.587 1101.08 196.283 1097.13 193.676C1093.18 191.042 1090.1 187.334 1087.87 182.55C1085.64 177.739 1084.53 172.055 1084.53 165.498C1084.53 158.994 1085.64 153.35 1087.87 148.566C1090.1 143.782 1093.2 140.087 1097.17 137.48C1101.14 134.873 1105.74 133.57 1110.94 133.57C1114.97 133.57 1118.15 134.242 1120.49 135.585C1122.85 136.902 1124.65 138.407 1125.89 140.101C1127.15 141.767 1128.13 143.137 1128.83 144.212H1129.95V134.376H1139.14V219.517H1129.63ZM1112.07 189.04C1115.89 189.04 1119.11 188.046 1121.74 186.057C1124.37 184.042 1126.37 181.26 1127.74 177.712C1129.11 174.138 1129.79 170.013 1129.79 165.336C1129.79 160.714 1129.12 156.669 1127.78 153.202C1126.44 149.708 1124.45 146.994 1121.82 145.059C1119.19 143.097 1115.94 142.116 1112.07 142.116C1108.05 142.116 1104.69 143.151 1102 145.22C1099.35 147.263 1097.35 150.044 1096 153.565C1094.69 157.059 1094.03 160.983 1094.03 165.336C1094.03 169.744 1094.7 173.748 1096.04 177.35C1097.41 180.924 1099.43 183.773 1102.08 185.896C1104.77 187.992 1108.1 189.04 1112.07 189.04Z" fill="#252422"/>
<path d="M1012.99 197.587C1007.4 197.587 1002.5 196.256 998.29 193.596C994.101 190.935 990.826 187.213 988.463 182.429C986.127 177.645 984.959 172.055 984.959 165.659C984.959 159.209 986.127 153.578 988.463 148.768C990.826 143.957 994.101 140.221 998.29 137.561C1002.5 134.9 1007.4 133.57 1012.99 133.57C1018.57 133.57 1023.46 134.9 1027.65 137.561C1031.86 140.221 1035.14 143.957 1037.48 148.768C1039.84 153.578 1041.02 159.209 1041.02 165.659C1041.02 172.055 1039.84 177.645 1037.48 182.429C1035.14 187.213 1031.86 190.935 1027.65 193.596C1023.46 196.256 1018.57 197.587 1012.99 197.587ZM1012.99 189.04C1017.23 189.04 1020.72 187.952 1023.46 185.775C1026.2 183.598 1028.23 180.736 1029.54 177.188C1030.86 173.641 1031.52 169.798 1031.52 165.659C1031.52 161.52 1030.86 157.663 1029.54 154.089C1028.23 150.515 1026.2 147.626 1023.46 145.422C1020.72 143.218 1017.23 142.116 1012.99 142.116C1008.75 142.116 1005.26 143.218 1002.52 145.422C999.78 147.626 997.753 150.515 996.437 154.089C995.121 157.663 994.464 161.52 994.464 165.659C994.464 169.798 995.121 173.641 996.437 177.188C997.753 180.736 999.78 183.598 1002.52 185.775C1005.26 187.952 1008.75 189.04 1012.99 189.04Z" fill="#252422"/>
<path d="M974.226 134.376V142.439H942.168V134.376H974.226ZM951.512 119.541H961.016V178.559C961.016 181.246 961.406 183.262 962.184 184.606C962.99 185.923 964.01 186.81 965.245 187.267C966.507 187.697 967.836 187.912 969.232 187.912C970.279 187.912 971.139 187.858 971.81 187.75C972.481 187.616 973.018 187.508 973.421 187.428L975.354 195.974C974.709 196.216 973.81 196.458 972.656 196.7C971.501 196.968 970.038 197.103 968.266 197.103C965.581 197.103 962.95 196.525 960.372 195.369C957.821 194.214 955.7 192.453 954.009 190.088C952.344 187.723 951.512 184.74 951.512 181.139V119.541Z" fill="#252422"/>
<path d="M909.104 197.587C903.304 197.587 898.311 196.216 894.122 193.475C889.934 190.733 886.712 186.957 884.456 182.147C882.201 177.336 881.074 171.84 881.074 165.659C881.074 159.37 882.228 153.82 884.537 149.01C886.873 144.172 890.122 140.396 894.283 137.682C898.472 134.94 903.358 133.57 908.943 133.57C913.292 133.57 917.212 134.376 920.703 135.989C924.193 137.601 927.052 139.859 929.281 142.761C931.509 145.664 932.892 149.05 933.429 152.92H923.925C923.2 150.098 921.589 147.599 919.092 145.422C916.622 143.218 913.292 142.116 909.104 142.116C905.399 142.116 902.15 143.084 899.358 145.019C896.592 146.927 894.431 149.628 892.874 153.122C891.343 156.588 890.578 160.66 890.578 165.336C890.578 170.12 891.33 174.286 892.833 177.833C894.364 181.381 896.512 184.136 899.277 186.097C902.069 188.059 905.345 189.04 909.104 189.04C911.574 189.04 913.816 188.61 915.83 187.75C917.843 186.89 919.548 185.654 920.944 184.041C922.34 182.429 923.334 180.494 923.925 178.236H933.429C932.892 181.891 931.563 185.184 929.442 188.113C927.348 191.016 924.569 193.327 921.105 195.047C917.669 196.74 913.668 197.587 909.104 197.587Z" fill="#252422"/>
<path d="M843.901 197.587C837.94 197.587 832.799 196.27 828.476 193.636C824.18 190.975 820.864 187.267 818.529 182.51C816.22 177.726 815.065 172.163 815.065 165.82C815.065 159.478 816.22 153.888 818.529 149.05C820.864 144.186 824.113 140.396 828.275 137.682C832.463 134.94 837.35 133.57 842.934 133.57C846.156 133.57 849.338 134.107 852.479 135.182C855.621 136.257 858.48 138.004 861.057 140.423C863.635 142.815 865.689 145.986 867.219 149.937C868.75 153.888 869.515 158.752 869.515 164.53V168.561H821.831V160.338H859.849C859.849 156.844 859.151 153.726 857.755 150.985C856.386 148.244 854.426 146.08 851.875 144.495C849.351 142.909 846.371 142.116 842.934 142.116C839.149 142.116 835.873 143.057 833.108 144.938C830.369 146.792 828.261 149.211 826.785 152.194C825.308 155.178 824.57 158.376 824.57 161.789V167.271C824.57 171.948 825.375 175.912 826.986 179.164C828.624 182.389 830.893 184.848 833.792 186.541C836.692 188.207 840.062 189.04 843.901 189.04C846.398 189.04 848.653 188.691 850.667 187.992C852.707 187.267 854.466 186.192 855.943 184.767C857.419 183.316 858.561 181.515 859.366 179.365L868.548 181.945C867.582 185.063 865.957 187.804 863.675 190.169C861.393 192.507 858.574 194.335 855.218 195.652C851.862 196.942 848.089 197.587 843.901 197.587Z" fill="#252422"/>
<path d="M763.173 219.517C761.562 219.517 760.125 219.382 758.863 219.114C757.601 218.872 756.729 218.63 756.246 218.388L758.662 210.003C760.971 210.594 763.012 210.809 764.784 210.648C766.556 210.487 768.126 209.694 769.496 208.27C770.892 206.872 772.167 204.601 773.322 201.457L775.094 196.619L752.218 134.376H762.528L779.604 183.719H780.249L797.325 134.376H807.635L781.376 205.327C780.195 208.525 778.732 211.172 776.986 213.268C775.241 215.391 773.214 216.964 770.905 217.985C768.623 219.006 766.046 219.517 763.173 219.517Z" fill="#252422"/>
<path d="M716.727 197.587C711.143 197.587 706.243 196.256 702.027 193.596C697.839 190.935 694.563 187.213 692.201 182.429C689.865 177.645 688.697 172.055 688.697 165.659C688.697 159.209 689.865 153.578 692.201 148.768C694.563 143.957 697.839 140.221 702.027 137.561C706.243 134.9 711.143 133.57 716.727 133.57C722.312 133.57 727.198 134.9 731.387 137.561C735.602 140.221 738.878 143.957 741.214 148.768C743.576 153.578 744.758 159.209 744.758 165.659C744.758 172.055 743.576 177.645 741.214 182.429C738.878 187.213 735.602 190.935 731.387 193.596C727.198 196.256 722.312 197.587 716.727 197.587ZM716.727 189.04C720.969 189.04 724.46 187.952 727.198 185.775C729.937 183.598 731.964 180.736 733.28 177.188C734.595 173.641 735.253 169.798 735.253 165.659C735.253 161.52 734.595 157.663 733.28 154.089C731.964 150.515 729.937 147.626 727.198 145.422C724.46 143.218 720.969 142.116 716.727 142.116C712.485 142.116 708.995 143.218 706.256 145.422C703.517 147.626 701.49 150.515 700.175 154.089C698.859 157.663 698.201 161.52 698.201 165.659C698.201 169.798 698.859 173.641 700.175 177.188C701.49 180.736 703.517 183.598 706.256 185.775C708.995 187.952 712.485 189.04 716.727 189.04Z" fill="#252422"/>
<path d="M651.283 196.297V134.376H660.465V143.729H661.109C662.237 140.665 664.278 138.179 667.231 136.271C670.184 134.363 673.514 133.409 677.219 133.409C677.917 133.409 678.79 133.422 679.837 133.449C680.884 133.476 681.676 133.516 682.213 133.57V143.245C681.891 143.164 681.152 143.043 679.998 142.882C678.87 142.694 677.675 142.6 676.413 142.6C673.406 142.6 670.721 143.231 668.359 144.495C666.023 145.731 664.17 147.451 662.801 149.655C661.458 151.832 660.787 154.318 660.787 157.113V196.297H651.283Z" fill="#252422"/>
<path d="M582.173 219.517V134.376H591.356V144.212H592.483C593.181 143.137 594.148 141.767 595.383 140.101C596.645 138.407 598.444 136.902 600.78 135.585C603.142 134.242 606.337 133.57 610.365 133.57C615.573 133.57 620.165 134.873 624.138 137.48C628.112 140.087 631.213 143.782 633.441 148.566C635.67 153.35 636.784 158.994 636.784 165.498C636.784 172.055 635.67 177.739 633.441 182.55C631.213 187.334 628.125 191.042 624.179 193.676C620.232 196.283 615.681 197.587 610.526 197.587C606.552 197.587 603.371 196.928 600.981 195.611C598.591 194.268 596.752 192.749 595.464 191.056C594.175 189.336 593.181 187.912 592.483 186.783H591.678V219.517H582.173ZM591.517 165.336C591.517 170.013 592.201 174.138 593.571 177.712C594.94 181.26 596.94 184.042 599.571 186.057C602.203 188.046 605.425 189.04 609.237 189.04C613.211 189.04 616.527 187.992 619.185 185.896C621.87 183.773 623.883 180.924 625.226 177.35C626.595 173.748 627.28 169.744 627.28 165.336C627.28 160.983 626.608 157.059 625.266 153.565C623.95 150.044 621.95 147.263 619.265 145.22C616.607 143.151 613.264 142.116 609.237 142.116C605.371 142.116 602.122 143.097 599.491 145.059C596.86 146.994 594.873 149.708 593.53 153.202C592.188 156.669 591.517 160.714 591.517 165.336Z" fill="#252422"/>
<path d="M510.204 197.587C504.244 197.587 499.102 196.27 494.78 193.636C490.484 190.975 487.168 187.267 484.832 182.51C482.523 177.726 481.369 172.163 481.369 165.82C481.369 159.478 482.523 153.888 484.832 149.05C487.168 144.186 490.417 140.396 494.578 137.682C498.767 134.94 503.653 133.57 509.238 133.57C512.46 133.57 515.641 134.107 518.783 135.182C521.924 136.257 524.783 138.004 527.361 140.423C529.938 142.815 531.992 145.986 533.523 149.937C535.053 153.888 535.818 158.752 535.818 164.53V168.561H488.134V160.338H526.153C526.153 156.844 525.455 153.726 524.059 150.985C522.689 148.244 520.729 146.08 518.179 144.495C515.655 142.909 512.674 142.116 509.238 142.116C505.452 142.116 502.177 143.057 499.411 144.938C496.672 146.792 494.565 149.211 493.088 152.194C491.611 155.178 490.873 158.376 490.873 161.789V167.271C490.873 171.948 491.679 175.912 493.289 179.164C494.927 182.389 497.196 184.848 500.096 186.541C502.995 188.207 506.365 189.04 510.204 189.04C512.701 189.04 514.957 188.691 516.97 187.992C519.011 187.267 520.769 186.192 522.246 184.767C523.723 183.316 524.864 181.515 525.669 179.365L534.852 181.945C533.885 185.063 532.261 187.804 529.979 190.169C527.697 192.507 524.877 194.335 521.521 195.652C518.165 196.942 514.393 197.587 510.204 197.587ZM504.405 125.991L514.232 107.286H525.347L512.782 125.991H504.405Z" fill="#252422"/>
<path d="M457.355 170.98V134.376H466.86V196.297H457.355V185.815H456.711C455.261 188.96 453.006 191.634 449.945 193.838C446.884 196.014 443.018 197.103 438.346 197.103C434.48 197.103 431.043 196.256 428.036 194.563C425.029 192.843 422.666 190.263 420.948 186.823C419.23 183.356 418.371 178.989 418.371 173.721V134.376H427.875V173.076C427.875 177.591 429.137 181.193 431.661 183.88C434.212 186.568 437.46 187.912 441.407 187.912C443.77 187.912 446.173 187.307 448.616 186.097C451.086 184.888 453.154 183.034 454.818 180.534C456.51 178.035 457.355 174.85 457.355 170.98Z" fill="#252422"/>
<path d="M391.468 219.517V186.783H390.662C389.964 187.912 388.971 189.336 387.682 191.056C386.393 192.749 384.554 194.268 382.165 195.611C379.775 196.928 376.594 197.587 372.62 197.587C367.465 197.587 362.914 196.283 358.967 193.676C355.02 191.042 351.933 187.334 349.704 182.55C347.476 177.739 346.361 172.055 346.361 165.498C346.361 158.994 347.476 153.35 349.704 148.566C351.933 143.782 355.034 140.087 359.007 137.48C362.981 134.873 367.572 133.57 372.781 133.57C376.808 133.57 379.99 134.242 382.326 135.585C384.689 136.902 386.487 138.407 387.722 140.101C388.984 141.767 389.964 143.137 390.662 144.212H391.79V134.376H400.972V219.517H391.468ZM373.909 189.04C377.721 189.04 380.943 188.046 383.574 186.057C386.205 184.042 388.206 181.26 389.575 177.712C390.944 174.138 391.629 170.013 391.629 165.336C391.629 160.714 390.958 156.669 389.615 153.202C388.273 149.708 386.286 146.994 383.655 145.059C381.024 143.097 377.775 142.116 373.909 142.116C369.881 142.116 366.525 143.151 363.84 145.22C361.182 147.263 359.182 150.044 357.839 153.565C356.524 157.059 355.866 160.983 355.866 165.336C355.866 169.744 356.537 173.748 357.88 177.35C359.249 180.924 361.263 183.773 363.921 185.896C366.606 187.992 369.935 189.04 373.909 189.04Z" fill="#252422"/>
<path d="M260.528 159.048V196.297H251.024V134.376H260.206V144.051H261.012C262.462 140.907 264.663 138.381 267.617 136.472C270.57 134.537 274.383 133.57 279.054 133.57C283.243 133.57 286.908 134.43 290.049 136.15C293.19 137.843 295.634 140.423 297.379 143.89C299.124 147.33 299.997 151.684 299.997 156.951V196.297H290.492V157.596C290.492 152.732 289.23 148.942 286.706 146.228C284.182 143.487 280.719 142.116 276.316 142.116C273.282 142.116 270.57 142.775 268.18 144.091C265.818 145.408 263.952 147.33 262.582 149.856C261.213 152.382 260.528 155.446 260.528 159.048Z" fill="#252422"/>
<path d="M208.485 197.587C202.9 197.587 198 196.256 193.785 193.596C189.597 190.935 186.321 187.213 183.958 182.429C181.623 177.645 180.455 172.055 180.455 165.659C180.455 159.209 181.623 153.578 183.958 148.768C186.321 143.957 189.597 140.221 193.785 137.561C198 134.9 202.9 133.57 208.485 133.57C214.07 133.57 218.956 134.9 223.145 137.561C227.36 140.221 230.635 143.957 232.971 148.768C235.334 153.578 236.515 159.209 236.515 165.659C236.515 172.055 235.334 177.645 232.971 182.429C230.635 187.213 227.36 190.935 223.145 193.596C218.956 196.256 214.07 197.587 208.485 197.587ZM208.485 189.04C212.727 189.04 216.217 187.952 218.956 185.775C221.695 183.598 223.722 180.736 225.037 177.188C226.353 173.641 227.011 169.798 227.011 165.659C227.011 161.52 226.353 157.663 225.037 154.089C223.722 150.515 221.695 147.626 218.956 145.422C216.217 143.218 212.727 142.116 208.485 142.116C204.243 142.116 200.752 143.218 198.014 145.422C195.275 147.626 193.248 150.515 191.933 154.089C190.617 157.663 189.959 161.52 189.959 165.659C189.959 169.798 190.617 173.641 191.933 177.188C193.248 180.736 195.275 183.598 198.014 185.775C200.752 187.952 204.243 189.04 208.485 189.04Z" fill="#252422"/>
<path d="M168.503 139.536H158.516C157.925 136.66 156.891 134.134 155.415 131.957C153.965 129.78 152.193 127.953 150.098 126.475C148.031 124.97 145.735 123.841 143.212 123.089C140.688 122.336 138.057 121.96 135.318 121.96C130.324 121.96 125.8 123.223 121.746 125.749C117.718 128.275 114.51 131.998 112.12 136.916C109.758 141.834 108.576 147.867 108.576 155.016C108.576 162.165 109.758 168.199 112.12 173.117C114.51 178.035 117.718 181.757 121.746 184.283C125.8 186.81 130.324 188.073 135.318 188.073C138.057 188.073 140.688 187.697 143.212 186.944C145.735 186.192 148.031 185.076 150.098 183.598C152.193 182.093 153.965 180.252 155.415 178.075C156.891 175.871 157.925 173.345 158.516 170.496H168.503C167.752 174.716 166.382 178.492 164.395 181.824C162.409 185.157 159.939 187.992 156.985 190.33C154.032 192.642 150.716 194.402 147.038 195.611C143.386 196.821 139.48 197.425 135.318 197.425C128.284 197.425 122.028 195.705 116.551 192.265C111.073 188.825 106.764 183.934 103.623 177.591C100.481 171.249 98.9107 163.724 98.9107 155.016C98.9107 146.309 100.481 138.784 103.623 132.441C106.764 126.099 111.073 121.207 116.551 117.767C122.028 114.327 128.284 112.607 135.318 112.607C139.48 112.607 143.386 113.212 147.038 114.421C150.716 115.631 154.032 117.404 156.985 119.743C159.939 122.054 162.409 124.876 164.395 128.208C166.382 131.514 167.752 135.29 168.503 139.536Z" fill="#252422"/>
<path fill-rule="evenodd" clip-rule="evenodd" d="M2052.37 460.017L1933.77 564.762C1928.37 567.9 1925.82 568.71 1921.75 569.163C1918.35 568.908 1916.23 567.736 1912.29 564.762L1906.07 556.861L2036.74 441.452L2052.37 460.017Z" fill="#5F9BC1"/>
<path fill-rule="evenodd" clip-rule="evenodd" d="M2028.68 435.767L1913.95 536.827C1905.39 544.371 1892.4 543.805 1884.53 535.545L1838.04 486.8L1861.97 463.938L1900.62 504.468L2006.83 410.91L2028.68 435.767Z" fill="#5F9BC1"/>
</svg>
