<svg width="441" height="470" viewBox="0 0 441 470" fill="none" xmlns="http://www.w3.org/2000/svg">
<path d="M1.72467 301.157C-0.249986 307.081 0.737717 316.954 2.71183 318.271C4.68594 319.587 241.652 469.007 241.652 469.007C244.219 470.372 245.665 470.29 248.234 469.007L417.072 370.271C419.784 368.097 420.806 366.138 420.692 359.74C420.605 354.599 419.635 351.927 417.73 350.524C417.73 350.524 3.69933 295.232 1.72467 301.157Z" fill="#457B9D"/>
<path d="M177.474 1.98823C183.069 -0.644734 184.973 -0.323222 188.664 1.00087L437.477 125.737C439.978 126.985 440.552 128.321 440.769 131.332V336.701C440.769 337.36 437.307 346.873 431.224 345.259C425.141 343.644 425.629 342.955 425.3 342.955C425.3 342.955 170.562 11.2035 170.562 10.5453C170.562 9.88708 171.879 4.62119 177.474 1.98823Z" fill="#457B9D"/>
<path d="M345.983 307.739V299.182L369.021 311.03V320.904L345.983 307.739Z" fill="#457B9D"/>
<path d="M224.867 241.257V232.7L247.905 244.548V254.422L224.867 241.257Z" fill="#457B9D"/>
<path d="M180.436 6.59579C176.487 4.62106 170.562 8.24146 170.562 11.5326C170.562 14.8237 174.183 201.763 174.183 201.763C174.432 204.006 175.264 204.967 177.474 206.371L424.313 342.955C426.955 343.667 429.579 342.955 429.579 341.967C429.579 340.98 426.946 139.56 426.946 139.56C426.805 136.346 426.452 134.67 422.996 132.977C422.996 132.977 184.385 8.57052 180.436 6.59579Z" fill="#5F9BC1"/>
<path d="M185.373 197.485L181.49 32.7551C181.454 31.2405 181.424 28.688 181.424 27.173L181.424 26.343C181.424 22.7227 185.044 20.0898 190.639 22.7227C196.205 25.3419 404.665 134.131 406.852 135.272L406.869 135.281L406.877 135.285C406.879 135.286 406.88 135.286 406.886 135.29C411.129 137.432 412.649 139.169 412.793 143.816C412.794 143.831 412.794 143.825 412.794 143.839L412.795 143.887C412.838 147.185 415.098 317.332 415.098 322.22C415.098 327.157 411.477 325.841 409.174 324.853C406.87 323.866 191.627 204.396 188.664 202.75C185.702 201.105 185.489 200.822 185.373 197.485Z" fill="#D9D9D9"/>
<path d="M412.136 344.271L170.892 209.004C167.842 207.351 166.058 206.861 162.335 209.004C162.335 209.004 6.66197 296.549 3.37058 298.524C0.0791986 300.498 1.3957 304.119 3.37058 305.435C5.34546 306.752 240.007 455.184 240.007 455.184C243.732 456.984 245.826 457.293 249.551 455.184L412.136 360.069C416.214 357.326 417.357 356.447 418.389 355.461C419.854 351.062 418.202 348.614 412.136 344.271Z" fill="#5F9BC1"/>
<path d="M103.122 253.673L122.917 264.586L113.962 269.956L93.837 258.928L103.122 253.673Z" fill="#7FADCB"/>
<path d="M116.057 245.889L135.852 256.802L126.897 262.172L106.772 251.143L116.057 245.889Z" fill="#7FADCB"/>
<path d="M129.649 238.835L149.444 249.748L140.489 255.118L120.364 244.089L129.649 238.835Z" fill="#7FADCB"/>
<path d="M142.583 231.429L162.378 242.342L153.423 247.712L133.298 236.683L142.583 231.429Z" fill="#7FADCB"/>
<path d="M155.845 224.427L175.64 235.34L166.685 240.71L146.56 229.682L155.845 224.427Z" fill="#7FADCB"/>
<path d="M126.871 267.785L146.666 278.698L137.711 284.068L117.586 273.04L126.871 267.785Z" fill="#7FADCB"/>
<path d="M139.806 260L159.601 270.913L150.646 276.283L130.521 265.255L139.806 260Z" fill="#7FADCB"/>
<path d="M153.399 252.947L173.193 263.86L164.238 269.229L144.114 258.201L153.399 252.947Z" fill="#7FADCB"/>
<path d="M166.332 245.54L186.127 256.453L177.172 261.823L157.047 250.795L166.332 245.54Z" fill="#7FADCB"/>
<path d="M179.594 238.539L199.389 249.452L190.434 254.822L170.309 243.794L179.594 238.539Z" fill="#7FADCB"/>
<path d="M150.62 281.899L170.415 292.812L161.46 298.182L141.335 287.154L150.62 281.899Z" fill="#7FADCB"/>
<path d="M163.555 274.115L183.35 285.028L174.395 290.398L154.27 279.369L163.555 274.115Z" fill="#7FADCB"/>
<path d="M177.148 267.061L196.942 277.974L187.987 283.344L167.863 272.315L177.148 267.061Z" fill="#7FADCB"/>
<path d="M190.081 259.655L209.876 270.568L200.921 275.938L180.796 264.909L190.081 259.655Z" fill="#7FADCB"/>
<path d="M203.343 252.653L223.138 263.566L214.183 268.936L194.058 257.908L203.343 252.653Z" fill="#7FADCB"/>
<path d="M175.034 295.38L194.828 306.293L185.873 311.663L165.749 300.634L175.034 295.38Z" fill="#7FADCB"/>
<path d="M187.968 287.595L207.763 298.508L198.808 303.878L178.683 292.85L187.968 287.595Z" fill="#7FADCB"/>
<path d="M201.561 280.541L221.356 291.454L212.401 296.824L192.276 285.796L201.561 280.541Z" fill="#7FADCB"/>
<path d="M214.494 273.135L234.289 284.048L225.334 289.418L205.209 278.39L214.494 273.135Z" fill="#7FADCB"/>
<path d="M227.757 266.134L247.551 277.047L238.597 282.417L218.472 271.388L227.757 266.134Z" fill="#7FADCB"/>
<path d="M199.444 309.497L219.239 320.41L210.284 325.78L190.159 314.752L199.444 309.497Z" fill="#7FADCB"/>
<path d="M212.379 301.712L232.174 312.625L223.219 317.995L203.094 306.967L212.379 301.712Z" fill="#7FADCB"/>
<path d="M225.972 294.659L245.766 305.572L236.811 310.942L216.687 299.913L225.972 294.659Z" fill="#7FADCB"/>
<path d="M238.905 287.252L258.7 298.165L249.745 303.535L229.62 292.507L238.905 287.252Z" fill="#7FADCB"/>
<path d="M252.167 280.251L271.962 291.164L263.007 296.534L242.882 285.506L252.167 280.251Z" fill="#7FADCB"/>
<path d="M223.855 323.614L243.649 334.527L234.695 339.897L214.57 328.869L223.855 323.614Z" fill="#7FADCB"/>
<path d="M236.789 315.83L256.584 326.743L247.629 332.113L227.504 321.084L236.789 315.83Z" fill="#7FADCB"/>
<path d="M250.382 308.776L270.177 319.689L261.222 325.059L241.097 314.03L250.382 308.776Z" fill="#7FADCB"/>
<path d="M263.315 301.37L283.11 312.283L274.155 317.653L254.031 306.624L263.315 301.37Z" fill="#7FADCB"/>
<path d="M276.578 294.368L296.373 305.281L287.418 310.651L267.293 299.623L276.578 294.368Z" fill="#7FADCB"/>
<path d="M248.268 337.095L268.063 348.008L259.108 353.378L238.983 342.349L248.268 337.095Z" fill="#7FADCB"/>
<path d="M261.203 329.31L280.998 340.223L272.043 345.593L251.918 334.565L261.203 329.31Z" fill="#7FADCB"/>
<path d="M274.796 322.256L294.59 333.169L285.635 338.539L265.511 327.511L274.796 322.256Z" fill="#7FADCB"/>
<path d="M287.729 314.85L307.524 325.763L298.569 331.133L278.444 320.105L287.729 314.85Z" fill="#7FADCB"/>
<path d="M300.991 307.849L320.786 318.762L311.831 324.132L291.706 313.103L300.991 307.849Z" fill="#7FADCB"/>
<path d="M272.682 350.575L292.476 361.488L283.521 366.858L263.397 355.83L272.682 350.575Z" fill="#7FADCB"/>
<path d="M285.616 342.791L305.411 353.704L296.456 359.074L276.331 348.046L285.616 342.791Z" fill="#7FADCB"/>
<path d="M299.209 335.737L319.004 346.65L310.049 352.02L289.924 340.992L299.209 335.737Z" fill="#7FADCB"/>
<path d="M312.142 328.331L331.937 339.244L322.982 344.614L302.857 333.586L312.142 328.331Z" fill="#7FADCB"/>
<path d="M325.405 321.329L345.2 332.242L336.245 337.612L316.12 326.584L325.405 321.329Z" fill="#7FADCB"/>
<path d="M297.095 364.056L316.89 374.969L307.935 380.339L287.81 369.311L297.095 364.056Z" fill="#7FADCB"/>
<path d="M310.03 356.272L329.825 367.185L320.87 372.555L300.745 361.526L310.03 356.272Z" fill="#7FADCB"/>
<path d="M323.622 349.218L343.417 360.131L334.462 365.501L314.337 354.472L323.622 349.218Z" fill="#7FADCB"/>
<path d="M336.556 341.812L356.351 352.725L347.396 358.095L327.271 347.066L336.556 341.812Z" fill="#7FADCB"/>
<path d="M349.818 334.81L369.613 345.723L360.658 351.093L340.533 340.065L349.818 334.81Z" fill="#7FADCB"/>
<path d="M320.844 378.17L340.639 389.083L331.684 394.453L311.559 383.425L320.844 378.17Z" fill="#7FADCB"/>
<path d="M333.779 370.386L353.574 381.299L344.619 386.669L324.494 375.641L333.779 370.386Z" fill="#7FADCB"/>
<path d="M347.372 363.332L367.166 374.245L358.211 379.615L338.087 368.587L347.372 363.332Z" fill="#7FADCB"/>
<path d="M360.305 355.926L380.1 366.839L371.145 372.209L351.02 361.181L360.305 355.926Z" fill="#7FADCB"/>
<path d="M373.567 348.924L393.362 359.837L384.407 365.207L364.282 354.179L373.567 348.924Z" fill="#7FADCB"/>
<path d="M151.49 314.538C152.093 314.199 152.829 314.201 153.43 314.541L231.733 358.881C232.985 359.59 233.082 361.358 231.916 362.2L188.088 393.854C187.44 394.322 186.575 394.353 185.895 393.934L104.961 344.056C103.679 343.266 103.717 341.391 105.029 340.653L151.49 314.538Z" fill="#7FADCB"/>
<path d="M312.782 120.424C311.782 120.924 283.783 139.424 283.783 139.424L294.283 158.424L305.282 150.924L313.782 165.924L354.282 139.924C354.282 139.924 317.282 120.924 316.282 120.424C315.282 119.924 313.782 119.924 312.782 120.424Z" fill="#457B9D"/>
<path d="M247.282 107.424V90.9239C247.282 86.9239 251.589 86.3699 253.957 87.5435C253.957 87.5435 269.457 95.0434 272.457 97.0435C275.457 99.0436 275.457 101.924 275.457 104.924V118.043C275.405 120.183 274.764 120.889 272.783 121.424L292.783 158.924L279.283 167.924L249.282 113.424C247.893 111.283 247.506 109.953 247.282 107.424Z" fill="#457B9D"/>
<path d="M316.782 173.924L304.782 152.924L277.782 170.924L269.782 170.424C269.782 170.424 243.282 188.159 239.782 190.424C236.282 192.689 238.282 202.924 242.782 209.924C246.465 214.94 251.141 217.185 253.782 215.424C259.782 211.424 316.782 173.924 316.782 173.924Z" fill="#457B9D"/>
<path d="M310.282 180.424L327.282 188.424L308.282 201.424L343.282 264.924L317.782 251.424L294.783 210.424L273.783 224.924C272.782 225.325 272.176 225.401 270.783 225.424C269.564 225.363 268.928 225.194 267.783 224.924L253.282 217.924L310.282 180.424Z" fill="#457B9D"/>
</svg>
