<svg width="62" height="72" viewBox="0 0 81 74" fill="none" xmlns="http://www.w3.org/2000/svg">
<path d="M8.34935 47.9374C5.21817 50.6425 3.01045 54.2559 2.03428 58.2734C1.4818 60.2772 1.15284 62.3358 1.0534 64.4117L0.743707 67.6678L5.24116 68.0926C6.90068 68.2443 8.57039 68.2503 10.2311 68.1108C14.3704 67.9309 18.3458 66.4418 21.5831 63.8585C23.5083 62.0699 24.6457 59.5929 24.7464 56.9695C24.847 54.3462 23.9028 51.7903 22.1203 49.8613C20.5335 47.8059 18.2032 46.4535 15.6289 46.0938C13.0547 45.7342 10.4415 46.396 8.34935 47.9374ZM17.2076 58.5737C15.0863 60.2308 12.4947 61.1756 9.80369 61.273L8.56689 61.1562L8.68436 59.9211C9.28574 57.2999 10.7019 54.9354 12.7302 53.166C13.14 52.8942 13.6346 52.7799 14.1222 52.8444C14.6208 52.9117 15.101 53.0777 15.5345 53.3326C15.968 53.5876 16.3462 53.9263 16.647 54.329C17.2811 54.8202 17.6956 55.5414 17.8005 56.336C17.9055 57.1307 17.6924 57.9347 17.2076 58.5737ZM80.2321 6.63578C80.3286 5.3169 79.9116 4.01192 79.0679 2.99297C78.2243 1.97402 77.0192 1.31977 75.7039 1.16665C69.1735 0.00835612 62.4758 0.17498 56.0102 1.65659C49.5446 3.13821 43.4434 5.90447 38.0703 9.7905L27.8922 19.5916L14.6668 15.5101C13.7656 15.223 12.8065 15.1666 11.8776 15.3461C10.9487 15.5256 10.0797 15.9352 9.35052 16.5374L5.16459 19.9938C4.52463 20.5328 4.0126 21.2071 3.66555 21.9679C3.31851 22.7286 3.14513 23.5568 3.15797 24.3925C3.16119 25.2379 3.35471 26.0717 3.72421 26.8322C4.09371 27.5926 4.62975 28.2604 5.29266 28.7859L16.1688 37.2904L16.8569 37.8085L33.1114 57.7535L33.5184 58.2451L39.8393 70.511C40.2316 71.26 40.7876 71.9112 41.4661 72.4165C42.1446 72.9219 42.9283 73.2683 43.7591 73.4303L44.3775 73.4887C45.8529 73.6218 47.3219 73.1706 48.4676 72.2324L52.6536 68.7759C53.3828 68.1738 53.949 67.3984 54.3 66.521C54.6511 65.6436 54.7758 64.6923 54.6627 63.7544L53.128 50.0712L64.3158 42.1781C69.2331 37.6321 73.1783 32.1395 75.9137 26.0311C78.6491 19.9228 80.118 13.3252 80.2321 6.63578ZM13.2685 22.4587L20.5398 24.7316L16.5413 28.6023L11.2773 24.3098L13.2685 22.4587ZM45.3446 65.7064L42.1119 59.7366L46.67 56.5419L47.5393 64.1011L45.3446 65.7064ZM60.0847 36.5671L37.7197 52.2411L22.8632 34.2974L42.4807 15.3051C51.331 9.02002 62.273 6.39951 73.0126 7.99305C72.5389 18.8211 67.9096 29.0533 60.0847 36.5671Z" fill="#457B9D"/>
<path d="M58.0992 29.4123C58.7747 28.8261 59.3263 28.1112 59.7216 27.3095C60.1168 26.5077 60.3478 25.6353 60.4009 24.7434C60.454 23.8515 60.3283 22.958 60.031 22.1154C59.7337 21.2728 59.2708 20.498 58.6696 19.8365C58.154 19.0936 57.4898 18.4655 56.7188 17.9919C55.9478 17.5183 55.0869 17.2095 54.1902 17.0849C53.2936 16.9603 52.3807 17.0227 51.5093 17.2681C50.6379 17.5135 49.8267 17.9366 49.1272 18.5106C48.4276 19.0847 47.8547 19.7974 47.4447 20.6035C47.0346 21.4097 46.7964 22.2919 46.7449 23.1945C46.6934 24.0971 46.8299 25.0005 47.1457 25.8477C47.4614 26.6949 47.9496 27.4674 48.5795 28.1165C49.1177 28.8278 49.7913 29.4257 50.5618 29.876C51.3322 30.3263 52.1842 30.6201 53.0689 30.7405C53.9535 30.8609 54.8533 30.8056 55.7166 30.5776C56.5798 30.3497 57.3896 29.9536 58.0992 29.4123Z" fill="#457B9D"/>
</svg>
