<svg width="66" height="76" viewBox="0 0 94 94" fill="none" xmlns="http://www.w3.org/2000/svg">
<path d="M83.8657 23.3768L79.7481 26.6211M17.6085 15.5169L20.8528 19.6345M77.7525 74.9102L74.5082 70.7926M11.4952 67.0503L15.6128 63.806M32.7076 77.0322L54.7934 79.6521M35.0787 88.5117L49.8025 90.2584M83.0844 49.7062L89.9411 50.5196M3.54691 40.2709L10.4036 41.0843M62.3473 13.5066L65.3088 7.26924M40.8458 11.0698L39.8053 4.2439M50.2997 23.1277C35.5755 21.381 27.1859 27.6657 26.0308 38.9126C25.4676 44.3959 26.7791 48.3332 30.0239 52.4509C33.2688 56.5686 34.8909 58.6274 34.0171 65.9892L56.1026 68.6092C56.9766 61.2477 59.0355 59.6252 63.152 56.3811C67.2692 53.1368 69.4671 49.6155 70.2021 44.1525C71.7105 32.9476 65.0242 24.8744 50.2997 23.1277Z" stroke="#457B9D" stroke-width="7" stroke-linecap="round" stroke-linejoin="round"/>
</svg>
